<svg width="58" height="58" viewBox="0 0 58 58" fill="none" xmlns="http://www.w3.org/2000/svg">
<g filter="url(#filter0_d_4265_11327)">
<rect x="4" width="50" height="50" rx="10" fill="black"/>
</g>
<g filter="url(#filter1_d_4265_11327)">
<rect x="4" width="50" height="50" rx="10" fill="url(#paint0_linear_4265_11327)" fill-opacity="0.3" shape-rendering="crispEdges"/>
<rect x="5" y="1" width="48" height="48" rx="9" stroke="#AF4DEC" stroke-width="2" shape-rendering="crispEdges"/>
</g>
<g clip-path="url(#clip0_4265_11327)">
<path d="M18 31.5508C18 31.9805 18.1562 32.3242 18.4688 32.582C18.7812 32.8399 19.2148 32.9688 19.7695 32.9688H24.7148C24.7461 33.7266 24.9512 34.4258 25.3301 35.0664C25.709 35.707 26.2188 36.2246 26.8594 36.6191C27.5 37.0136 28.2305 37.2109 29.0508 37.2109C29.8789 37.2109 30.6133 37.0156 31.2539 36.625C31.8945 36.2344 32.4043 35.7168 32.7832 35.0723C33.1621 34.4278 33.3672 33.7266 33.3984 32.9688H38.3438C38.8985 32.9688 39.332 32.8399 39.6445 32.582C39.957 32.3242 40.1133 31.9805 40.1133 31.5508C40.1133 31.1601 40 30.7812 39.7734 30.4141C39.5469 30.0469 39.2637 29.6875 38.9238 29.3359C38.584 28.9844 38.2461 28.6328 37.9102 28.2812C37.6523 28.0156 37.4511 27.668 37.3066 27.2383C37.1621 26.8086 37.0547 26.3516 36.9844 25.8672C36.9141 25.3828 36.8633 24.914 36.832 24.4609C36.8086 22.9219 36.6465 21.5684 36.3457 20.4004C36.0449 19.2324 35.5781 18.2578 34.9453 17.4766C34.3125 16.6953 33.4766 16.1172 32.4375 15.7422C32.2422 14.9766 31.8457 14.3281 31.248 13.7969C30.6504 13.2656 29.918 13 29.0508 13C28.1914 13 27.4629 13.2656 26.8652 13.7969C26.2676 14.3281 25.8711 14.9766 25.6758 15.7422C24.6367 16.1172 23.7988 16.6953 23.1621 17.4766C22.5254 18.2578 22.0586 19.2324 21.7617 20.4004C21.4648 21.5684 21.3047 22.9219 21.2812 24.4609C21.25 24.914 21.1992 25.3828 21.1289 25.8672C21.0586 26.3516 20.9512 26.8086 20.8066 27.2383C20.6621 27.668 20.4609 28.0156 20.2031 28.2812C19.8672 28.6328 19.5293 28.9844 19.1895 29.3359C18.8496 29.6875 18.5664 30.0469 18.3398 30.4141C18.1133 30.7812 18 31.1601 18 31.5508ZM20.2734 31.1992V31.0586C20.3438 30.9492 20.4609 30.8027 20.625 30.6191C20.7891 30.4356 20.9746 30.2344 21.1816 30.0156C21.3887 29.7969 21.5938 29.5742 21.7969 29.3477C22.0078 29.1133 22.1914 28.8418 22.3477 28.5332C22.5039 28.2246 22.6367 27.875 22.7461 27.4844C22.8555 27.0937 22.9414 26.6601 23.0039 26.1836C23.0664 25.7071 23.1133 25.1836 23.1445 24.6133C23.1758 22.9102 23.3516 21.5586 23.6719 20.5586C23.9922 19.5586 24.4199 18.8144 24.9551 18.3262C25.4902 17.8379 26.0937 17.5 26.7656 17.3125C26.9141 17.2812 27.0273 17.2246 27.1055 17.1426C27.1836 17.0605 27.2266 16.9453 27.2344 16.7969C27.2578 16.1875 27.4316 15.6895 27.7559 15.3027C28.0801 14.916 28.5117 14.7227 29.0508 14.7227C29.5977 14.7227 30.0332 14.916 30.3574 15.3027C30.6817 15.6895 30.8555 16.1875 30.8789 16.7969C30.8789 16.9453 30.9199 17.0605 31.002 17.1426C31.084 17.2246 31.1953 17.2812 31.3359 17.3125C32.0078 17.5 32.6114 17.8379 33.1465 18.3262C33.6816 18.8144 34.1113 19.5586 34.4355 20.5586C34.7598 21.5586 34.9375 22.9102 34.9688 24.6133C34.9922 25.1836 35.0371 25.7071 35.1035 26.1836C35.1699 26.6601 35.2558 27.0937 35.3613 27.4844C35.4668 27.875 35.5976 28.2246 35.7539 28.5332C35.9102 28.8418 36.0938 29.1133 36.3047 29.3477C36.5156 29.5742 36.7246 29.7969 36.9316 30.0156C37.1387 30.2344 37.3223 30.4356 37.4824 30.6191C37.6426 30.8027 37.7578 30.9492 37.8281 31.0586V31.1992H20.2734ZM26.543 32.9688H31.5703C31.5234 33.7657 31.2695 34.3965 30.8086 34.8613C30.3477 35.3262 29.7617 35.5586 29.0508 35.5586C28.3477 35.5586 27.7637 35.3262 27.2988 34.8613C26.834 34.3965 26.582 33.7657 26.543 32.9688Z" fill="white" fill-opacity="0.85"/>
</g>
<defs>
<filter id="filter0_d_4265_11327" x="0" y="0" width="58" height="58" filterUnits="userSpaceOnUse" color-interpolation-filters="sRGB">
<feFlood flood-opacity="0" result="BackgroundImageFix"/>
<feColorMatrix in="SourceAlpha" type="matrix" values="0 0 0 0 0 0 0 0 0 0 0 0 0 0 0 0 0 0 127 0" result="hardAlpha"/>
<feOffset dy="4"/>
<feGaussianBlur stdDeviation="2"/>
<feComposite in2="hardAlpha" operator="out"/>
<feColorMatrix type="matrix" values="0 0 0 0 0 0 0 0 0 0 0 0 0 0 0 0 0 0 0.1 0"/>
<feBlend mode="normal" in2="BackgroundImageFix" result="effect1_dropShadow_4265_11327"/>
<feBlend mode="normal" in="SourceGraphic" in2="effect1_dropShadow_4265_11327" result="shape"/>
</filter>
<filter id="filter1_d_4265_11327" x="0" y="0" width="58" height="58" filterUnits="userSpaceOnUse" color-interpolation-filters="sRGB">
<feFlood flood-opacity="0" result="BackgroundImageFix"/>
<feColorMatrix in="SourceAlpha" type="matrix" values="0 0 0 0 0 0 0 0 0 0 0 0 0 0 0 0 0 0 127 0" result="hardAlpha"/>
<feOffset dy="4"/>
<feGaussianBlur stdDeviation="2"/>
<feComposite in2="hardAlpha" operator="out"/>
<feColorMatrix type="matrix" values="0 0 0 0 0 0 0 0 0 0 0 0 0 0 0 0 0 0 0.1 0"/>
<feBlend mode="normal" in2="BackgroundImageFix" result="effect1_dropShadow_4265_11327"/>
<feBlend mode="normal" in="SourceGraphic" in2="effect1_dropShadow_4265_11327" result="shape"/>
</filter>
<linearGradient id="paint0_linear_4265_11327" x1="12.3333" y1="3.57143" x2="41.6453" y2="50.7401" gradientUnits="userSpaceOnUse">
<stop stop-color="#AF4DEC"/>
<stop offset="1" stop-color="#1E1E1E"/>
</linearGradient>
<clipPath id="clip0_4265_11327">
<rect width="22.1133" height="24.2227" fill="white" transform="translate(18 13)"/>
</clipPath>
</defs>
</svg>
