<svg width="174" height="140" viewBox="0 0 174 140" fill="none" xmlns="http://www.w3.org/2000/svg">
<mask id="mask0_4715_10402" style="mask-type:alpha" maskUnits="userSpaceOnUse" x="1" y="1" width="172" height="138">
<rect x="1" y="1" width="172" height="138" rx="14" fill="white"/>
</mask>
<g mask="url(#mask0_4715_10402)">
<rect x="115.18" y="40.4297" width="7.1719" height="57.3653" transform="rotate(-20.8141 115.18 40.4297)" fill="url(#paint0_linear_4715_10402)"/>
<path d="M125.294 99.4116C122.362 96.6992 120.197 99.7545 119.481 101.621C119.149 101.747 119.096 101.024 119.11 100.646C118.494 91.5256 117.45 73.2776 118.199 73.248C119.135 73.211 119.494 74.988 119.746 76.4864C119.999 77.9848 122.656 86.2231 126.609 88.7065C130.563 91.1899 131.714 89.636 132.495 87.1068C133.276 84.5777 135.307 84.9216 138.345 87.9126C141.383 90.9036 144.847 92.935 148.051 92.1955C151.254 91.4561 151.717 88.0911 150.694 82.8993C149.875 78.7459 147.124 73.7858 145.851 71.825C145.801 70.6956 146.546 71.2947 146.925 71.7354C151.316 77.4539 160.288 89.1381 161.044 90.1264C161.8 91.1147 161.364 91.3865 161.052 91.3988C156.619 89.7357 157.574 97.6641 158.43 101.166C159.286 104.667 168.308 110.485 169.615 111.424C170.661 112.174 173.408 114.18 174.652 115.09C175.071 116.472 175.956 121.355 176.138 129.832C176.319 138.31 174.447 142.327 173.488 143.277C171.491 135.107 164.057 133.468 163.239 132.982C162.584 132.593 162.613 131.891 162.709 131.589C163.263 131.378 164.164 130.749 163.339 129.914C162.309 128.87 158.812 127.17 152.67 129.346C146.528 131.521 145.768 134.521 145.031 135.917C144.305 137.295 146.17 137.376 147.303 137.426L147.348 137.428C148.25 137.468 148.077 138.373 147.878 138.821C140.655 141.822 136.462 145.18 135.269 146.484C128.373 152.677 125.175 162.015 124.438 165.909C121.997 159.821 122.271 155.624 122.713 154.287C124.975 137.323 130.718 119.513 130.89 111.635C131.063 103.756 128.958 102.802 125.294 99.4116Z" fill="url(#paint1_linear_4715_10402)"/>
<path d="M153.298 84.8259C151.779 85.4033 152.694 93.0279 148.711 94.1028C143.455 95.5214 138.371 92.8181 133.672 91.1275C136.224 94.7934 134.919 100.505 127.112 98.2573C124.509 97.5079 133.158 103.492 133.25 109.831C133.345 116.353 130.609 128.799 129.425 133.306C128.241 137.813 136.1 123.428 139.409 126.034C141.89 127.988 138.024 142.206 141.932 137.244C143.105 135.755 143.307 129.883 151.967 127.055C162.792 123.519 164.403 129.281 166.378 131.428C167.958 133.145 165.656 126.486 166.264 120.461C166.75 115.64 173.424 119.478 172.461 116.946C171.499 114.414 160.633 108.694 156.804 103.195C152.976 97.6971 156.934 89.8179 157.248 89.1191C157.562 88.4203 152.762 92.5628 153.298 84.8259Z" fill="#D9D9D9" fill-opacity="0.5"/>
<path d="M120.804 35.1737L114.187 37.6893C113.595 36.2956 111.533 33.9146 108.013 35.5404C107.495 35.7973 106.468 35.9477 106.507 34.4944C106.555 32.6777 107.757 29.5231 106.103 25.6563C104.448 21.7894 103.128 19.7737 99.7687 18.7127L101.708 8.26448C101.818 7.74321 102.124 7.02721 102.473 8.33331C102.909 9.96595 104.018 18.7157 109.787 16.8825C115.555 15.0494 111.6 7.56116 110.059 5.44964C108.825 3.76043 110.645 5.04707 111.708 5.90155L118.975 11.4115C118.096 12.8247 116.841 16.6826 118.853 20.8093C120.865 24.9359 123.58 26.9253 124.685 27.4042C125.094 27.6685 125.773 28.3215 125.223 28.8183C124.535 29.4393 119.759 29.996 120.804 35.1737Z" fill="url(#paint2_linear_4715_10402)"/>
<g filter="url(#filter0_d_4715_10402)">
<rect x="136.195" y="102.336" width="11.9167" height="3.25" rx="1.625" transform="rotate(-20.8141 136.195 102.336)" fill="white" fill-opacity="0.8" shape-rendering="crispEdges"/>
</g>
<g filter="url(#filter1_d_4715_10402)">
<rect x="140.039" y="112.461" width="11.9167" height="3.25" rx="1.625" transform="rotate(-20.8141 140.039 112.461)" fill="white" fill-opacity="0.8" shape-rendering="crispEdges"/>
</g>
<g filter="url(#filter2_d_4715_10402)">
<rect x="143.117" y="120.562" width="11.9167" height="6.5" rx="3.25" transform="rotate(-20.8141 143.117 120.562)" fill="white" fill-opacity="0.8" shape-rendering="crispEdges"/>
</g>
<rect width="7.1719" height="6.55106" transform="matrix(0.934739 -0.355336 -0.355336 -0.934739 117.531 46.6328)" fill="#D9D9D9" fill-opacity="0.6"/>
<rect width="7.1719" height="6.55106" transform="matrix(0.934739 -0.355336 -0.355336 -0.934739 119.742 52.4531)" fill="#D9D9D9" fill-opacity="0.6"/>
<rect width="7.1719" height="6.55106" transform="matrix(0.934739 -0.355336 -0.355336 -0.934739 121.961 58.2656)" fill="#D9D9D9" fill-opacity="0.6"/>
<rect width="7.1719" height="6.55106" transform="matrix(0.934739 -0.355336 -0.355336 -0.934739 124.172 64.0859)" fill="#D9D9D9" fill-opacity="0.6"/>
<rect width="7.1719" height="6.55106" transform="matrix(0.934739 -0.355336 -0.355336 -0.934739 126.383 69.9062)" fill="#D9D9D9" fill-opacity="0.6"/>
<rect width="7.1719" height="6.55106" transform="matrix(0.934739 -0.355336 -0.355336 -0.934739 128.594 75.7188)" fill="#D9D9D9" fill-opacity="0.6"/>
<rect width="7.1719" height="6.55106" transform="matrix(0.934739 -0.355336 -0.355336 -0.934739 130.805 81.5391)" fill="#D9D9D9" fill-opacity="0.6"/>
<rect width="7.1719" height="6.55106" transform="matrix(0.934739 -0.355336 -0.355336 -0.934739 133.016 87.3594)" fill="#D9D9D9" fill-opacity="0.6"/>
<path d="M139.587 84.4594L132.883 87.0078L135.036 92.6721C135.566 92.9962 137.083 93.4707 138.912 92.7756C140.74 92.0806 141.559 90.718 141.74 90.1236L139.587 84.4594Z" fill="#D9D9D9" fill-opacity="0.6"/>
<rect x="113.969" y="37.7656" width="7.58333" height="3.25" transform="rotate(-20.8141 113.969 37.7656)" fill="#AF4DEC"/>
<ellipse cx="107.927" cy="21.666" rx="1.16273" ry="1.22139" transform="rotate(-20.8141 107.927 21.666)" fill="white" fill-opacity="0.5"/>
<ellipse cx="110.482" cy="25.3301" rx="1.16273" ry="1.22139" transform="rotate(-20.8141 110.482 25.3301)" fill="white" fill-opacity="0.5"/>
<ellipse cx="111.005" cy="29.7676" rx="1.16273" ry="1.22139" transform="rotate(-20.8141 111.005 29.7676)" fill="white" fill-opacity="0.5"/>
<ellipse rx="1.16273" ry="1.22139" transform="matrix(-0.934739 0.355336 0.355336 0.934739 115.019 18.9767)" fill="white" fill-opacity="0.5"/>
<ellipse rx="1.16273" ry="1.22139" transform="matrix(-0.934739 0.355336 0.355336 0.934739 115.542 23.4142)" fill="white" fill-opacity="0.5"/>
<ellipse rx="1.16273" ry="1.22139" transform="matrix(-0.934739 0.355336 0.355336 0.934739 118.097 27.0783)" fill="white" fill-opacity="0.5"/>
</g>
<defs>
<filter id="filter0_d_4715_10402" x="132.664" y="98.5703" width="19.3516" height="14.3359" filterUnits="userSpaceOnUse" color-interpolation-filters="sRGB">
<feFlood flood-opacity="0" result="BackgroundImageFix"/>
<feColorMatrix in="SourceAlpha" type="matrix" values="0 0 0 0 0 0 0 0 0 0 0 0 0 0 0 0 0 0 127 0" result="hardAlpha"/>
<feOffset dy="4"/>
<feGaussianBlur stdDeviation="2"/>
<feComposite in2="hardAlpha" operator="out"/>
<feColorMatrix type="matrix" values="0 0 0 0 0 0 0 0 0 0 0 0 0 0 0 0 0 0 0.1 0"/>
<feBlend mode="normal" in2="BackgroundImageFix" result="effect1_dropShadow_4715_10402"/>
<feBlend mode="normal" in="SourceGraphic" in2="effect1_dropShadow_4715_10402" result="shape"/>
</filter>
<filter id="filter1_d_4715_10402" x="136.508" y="108.695" width="19.3516" height="14.3359" filterUnits="userSpaceOnUse" color-interpolation-filters="sRGB">
<feFlood flood-opacity="0" result="BackgroundImageFix"/>
<feColorMatrix in="SourceAlpha" type="matrix" values="0 0 0 0 0 0 0 0 0 0 0 0 0 0 0 0 0 0 127 0" result="hardAlpha"/>
<feOffset dy="4"/>
<feGaussianBlur stdDeviation="2"/>
<feComposite in2="hardAlpha" operator="out"/>
<feColorMatrix type="matrix" values="0 0 0 0 0 0 0 0 0 0 0 0 0 0 0 0 0 0 0.1 0"/>
<feBlend mode="normal" in2="BackgroundImageFix" result="effect1_dropShadow_4715_10402"/>
<feBlend mode="normal" in="SourceGraphic" in2="effect1_dropShadow_4715_10402" result="shape"/>
</filter>
<filter id="filter2_d_4715_10402" x="140.062" y="117.273" width="19.5625" height="16.4219" filterUnits="userSpaceOnUse" color-interpolation-filters="sRGB">
<feFlood flood-opacity="0" result="BackgroundImageFix"/>
<feColorMatrix in="SourceAlpha" type="matrix" values="0 0 0 0 0 0 0 0 0 0 0 0 0 0 0 0 0 0 127 0" result="hardAlpha"/>
<feOffset dy="4"/>
<feGaussianBlur stdDeviation="2"/>
<feComposite in2="hardAlpha" operator="out"/>
<feColorMatrix type="matrix" values="0 0 0 0 0 0 0 0 0 0 0 0 0 0 0 0 0 0 0.1 0"/>
<feBlend mode="normal" in2="BackgroundImageFix" result="effect1_dropShadow_4715_10402"/>
<feBlend mode="normal" in="SourceGraphic" in2="effect1_dropShadow_4715_10402" result="shape"/>
</filter>
<linearGradient id="paint0_linear_4715_10402" x1="115.18" y1="68.9802" x2="122.352" y2="68.9802" gradientUnits="userSpaceOnUse">
<stop stop-color="#AF4DEC"/>
<stop offset="1" stop-color="#6D7EF7"/>
</linearGradient>
<linearGradient id="paint1_linear_4715_10402" x1="108.577" y1="124.202" x2="169.335" y2="101.105" gradientUnits="userSpaceOnUse">
<stop stop-color="#AF4DEC"/>
<stop offset="1" stop-color="#6D7EF7"/>
</linearGradient>
<linearGradient id="paint2_linear_4715_10402" x1="102.091" y1="24.8226" x2="121.331" y2="17.5086" gradientUnits="userSpaceOnUse">
<stop stop-color="#AF4DEC"/>
<stop offset="1" stop-color="#6D7EF7"/>
</linearGradient>
</defs>
</svg>
