<svg width="83" height="98" viewBox="0 0 83 98" fill="none" xmlns="http://www.w3.org/2000/svg">
<g filter="url(#filter0_d_4265_11304)">
<rect x="4" width="75" height="90" rx="15" fill="black"/>
</g>
<g filter="url(#filter1_d_4265_11304)">
<rect x="4" width="75" height="90" rx="15" fill="url(#paint0_linear_4265_11304)" fill-opacity="0.3" shape-rendering="crispEdges"/>
<rect x="5" y="1" width="73" height="88" rx="14" stroke="#AF4DEC" stroke-width="2" shape-rendering="crispEdges"/>
</g>
<path d="M31.6009 49.168V56.188H36.5809V49.168H31.6009ZM35.6089 49.972V55.384H32.5729V49.972H35.6089ZM38.5129 48.088V58.936H39.5209V48.088H38.5129ZM39.2809 52.42V53.26H41.2969V52.42H39.2809ZM49.852 48.076V58.948H50.848V48.076H49.852ZM45.124 48.916C43.528 48.916 42.376 50.392 42.376 52.696C42.376 55.012 43.528 56.488 45.124 56.488C46.732 56.488 47.884 55.012 47.884 52.696C47.884 50.392 46.732 48.916 45.124 48.916ZM45.124 49.816C46.192 49.816 46.924 50.944 46.924 52.696C46.924 54.46 46.192 55.612 45.124 55.612C44.068 55.612 43.324 54.46 43.324 52.696C43.324 50.944 44.068 49.816 45.124 49.816ZM34.0854 62.088V72.936H35.0454V62.088H34.0854ZM30.5094 66.216V67.092H32.3094V66.216H30.5094ZM31.9854 62.352V72.372H32.9334V62.352H31.9854ZM25.8774 63.456V64.272H30.8334V63.456H25.8774ZM25.7814 70.272C27.1734 70.272 29.4414 70.224 31.1334 69.9L31.0614 69.168C29.4174 69.384 27.0654 69.432 25.6614 69.432L25.7814 70.272ZM26.7654 63.984V69.66H27.6774V63.984H26.7654ZM29.0214 63.984V69.66H29.9334V63.984H29.0214ZM44.4525 62.076V72.948H45.4485V62.076H44.4525ZM39.7245 62.916C38.1285 62.916 36.9765 64.392 36.9765 66.696C36.9765 69.012 38.1285 70.488 39.7245 70.488C41.3325 70.488 42.4845 69.012 42.4845 66.696C42.4845 64.392 41.3325 62.916 39.7245 62.916ZM39.7245 63.816C40.7925 63.816 41.5245 64.944 41.5245 66.696C41.5245 68.46 40.7925 69.612 39.7245 69.612C38.6685 69.612 37.9245 68.46 37.9245 66.696C37.9245 64.944 38.6685 63.816 39.7245 63.816ZM50.2475 63.636V65.4C50.2475 67.272 48.9395 69.312 47.3675 70.056L47.9435 70.848C49.6715 69.996 51.0515 67.692 51.0515 65.4V63.636H50.2475ZM50.4395 63.636V65.4C50.4395 67.656 51.8315 69.768 53.5835 70.584L54.1475 69.792C52.5515 69.108 51.2435 67.236 51.2435 65.4V63.636H50.4395ZM47.7275 63.192V64.032H53.7875V63.192H47.7275ZM55.2515 62.088V72.936H56.2475V62.088H55.2515Z" fill="#EAEAEA"/>
<path d="M34.6646 38.1176H48.3355C50.1118 38.1176 51 37.5383 51 36.3796C51 35.6699 50.7825 34.9132 50.3475 34.1093C49.9125 33.3055 49.2835 32.5469 48.4606 31.8336C47.6376 31.1203 46.6407 30.5391 45.4697 30.0901C44.2987 29.6411 42.9773 29.4166 41.5055 29.4166C40.0264 29.4166 38.7013 29.6411 37.5304 30.0901C36.3594 30.5391 35.3624 31.1203 34.5395 31.8336C33.7166 32.5469 33.0876 33.3055 32.6525 34.1093C32.2175 34.9132 32 35.6699 32 36.3796C32 37.5383 32.8882 38.1176 34.6646 38.1176ZM34.1534 36.4774C34.0084 36.4774 33.9051 36.4557 33.8434 36.4122C33.7818 36.3688 33.751 36.2891 33.751 36.1733C33.751 35.7315 33.9196 35.2192 34.2567 34.6361C34.5939 34.0532 35.0924 33.4902 35.7522 32.9471C36.412 32.4039 37.224 31.953 38.1883 31.5946C39.1527 31.2361 40.2584 31.0569 41.5055 31.0569C42.7525 31.0569 43.8564 31.2361 44.8172 31.5946C45.7778 31.953 46.5881 32.4039 47.2479 32.9471C47.9077 33.4902 48.4062 34.0532 48.7433 34.6361C49.0805 35.2192 49.2491 35.7315 49.2491 36.1733C49.2491 36.2891 49.2183 36.3688 49.1566 36.4122C49.095 36.4557 48.9953 36.4774 48.8575 36.4774H34.1534ZM41.5055 28.0697C42.3683 28.0697 43.155 27.838 43.8655 27.3745C44.576 26.911 45.1434 26.2936 45.5676 25.5224C45.9917 24.7511 46.2038 23.8984 46.2038 22.9642C46.2038 22.0373 45.9935 21.1991 45.573 20.4495C45.1525 19.7 44.587 19.1044 43.8764 18.6626C43.1659 18.2209 42.3755 18 41.5055 18C40.6427 18 39.856 18.2245 39.1454 18.6735C38.4349 19.1225 37.8675 19.7235 37.4434 20.4767C37.0192 21.2298 36.8071 22.0663 36.8071 22.986C36.8071 23.9129 37.0192 24.762 37.4434 25.5333C37.8675 26.3045 38.4349 26.9201 39.1454 27.3799C39.856 27.8398 40.6427 28.0697 41.5055 28.0697ZM41.5055 26.4294C40.9762 26.4294 40.4886 26.2755 40.0427 25.9678C39.5968 25.66 39.2379 25.2454 38.966 24.724C38.6941 24.2026 38.5581 23.6232 38.5581 22.986C38.5581 22.3559 38.6923 21.7893 38.9605 21.286C39.2288 20.7827 39.5859 20.3825 40.0318 20.0856C40.4777 19.7887 40.9689 19.6403 41.5055 19.6403C42.0493 19.6403 42.5441 19.7851 42.99 20.0748C43.436 20.3644 43.7912 20.7609 44.0558 21.2642C44.3205 21.7675 44.4528 22.3342 44.4528 22.9642C44.4528 23.6015 44.3186 24.1827 44.0504 24.7077C43.7821 25.2327 43.4251 25.6509 42.9791 25.9623C42.5332 26.2737 42.042 26.4294 41.5055 26.4294Z" fill="#EAEAEA"/>
<defs>
<filter id="filter0_d_4265_11304" x="0" y="0" width="83" height="98" filterUnits="userSpaceOnUse" color-interpolation-filters="sRGB">
<feFlood flood-opacity="0" result="BackgroundImageFix"/>
<feColorMatrix in="SourceAlpha" type="matrix" values="0 0 0 0 0 0 0 0 0 0 0 0 0 0 0 0 0 0 127 0" result="hardAlpha"/>
<feOffset dy="4"/>
<feGaussianBlur stdDeviation="2"/>
<feComposite in2="hardAlpha" operator="out"/>
<feColorMatrix type="matrix" values="0 0 0 0 0 0 0 0 0 0 0 0 0 0 0 0 0 0 0.1 0"/>
<feBlend mode="normal" in2="BackgroundImageFix" result="effect1_dropShadow_4265_11304"/>
<feBlend mode="normal" in="SourceGraphic" in2="effect1_dropShadow_4265_11304" result="shape"/>
</filter>
<filter id="filter1_d_4265_11304" x="0" y="0" width="83" height="98" filterUnits="userSpaceOnUse" color-interpolation-filters="sRGB">
<feFlood flood-opacity="0" result="BackgroundImageFix"/>
<feColorMatrix in="SourceAlpha" type="matrix" values="0 0 0 0 0 0 0 0 0 0 0 0 0 0 0 0 0 0 127 0" result="hardAlpha"/>
<feOffset dy="4"/>
<feGaussianBlur stdDeviation="2"/>
<feComposite in2="hardAlpha" operator="out"/>
<feColorMatrix type="matrix" values="0 0 0 0 0 0 0 0 0 0 0 0 0 0 0 0 0 0 0.1 0"/>
<feBlend mode="normal" in2="BackgroundImageFix" result="effect1_dropShadow_4265_11304"/>
<feBlend mode="normal" in="SourceGraphic" in2="effect1_dropShadow_4265_11304" result="shape"/>
</filter>
<linearGradient id="paint0_linear_4265_11304" x1="16.5" y1="6.42857" x2="72.9003" y2="82.0611" gradientUnits="userSpaceOnUse">
<stop stop-color="#AF4DEC"/>
<stop offset="1" stop-color="#1E1E1E"/>
</linearGradient>
</defs>
</svg>
