<svg width="174" height="140" viewBox="0 0 174 140" fill="none" xmlns="http://www.w3.org/2000/svg">
<mask id="mask0_4715_10788" style="mask-type:alpha" maskUnits="userSpaceOnUse" x="1" y="1" width="172" height="138">
<rect x="1.5" y="1.5" width="171" height="137" rx="13.5" fill="white" stroke="#B3B3B3"/>
</mask>
<g mask="url(#mask0_4715_10788)">
<path d="M86.0761 71.1122L208.435 61.2949L205.915 92.9908L74.0431 97.6631C77.1813 89.5797 83.5597 73.1736 83.9676 72.2161C84.3756 71.2586 85.5432 71.0812 86.0761 71.1122Z" fill="url(#paint0_linear_4715_10788)"/>
<path d="M167.93 75.8984L165.15 76.1141L162.44 91.0679L165.654 91.2061L167.93 75.8984Z" fill="#471B62" fill-opacity="0.8"/>
<path d="M156.695 76.6016L153.91 76.7399L150.786 91.6127L153.995 91.8401L156.695 76.6016Z" fill="#471B62" fill-opacity="0.8"/>
<path d="M145.805 77.125L143.02 77.2633L139.896 92.1361L143.105 92.3635L145.805 77.125Z" fill="#471B62" fill-opacity="0.8"/>
<ellipse cx="156.62" cy="71.0864" rx="3.3868" ry="2.65452" transform="rotate(152.366 156.62 71.0864)" fill="#471B62" fill-opacity="0.8"/>
<ellipse cx="146.32" cy="71.9215" rx="3.20373" ry="2.47145" transform="rotate(152.366 146.32 71.9215)" fill="#471B62" fill-opacity="0.8"/>
<ellipse cx="167.752" cy="70.2095" rx="3.3868" ry="2.47145" transform="rotate(152.366 167.752 70.2095)" fill="#471B62" fill-opacity="0.8"/>
<path d="M211.066 66.335C211.023 65.7789 210.259 63.2793 209.882 62.099C209.529 60.9615 208.741 61.0431 208.392 61.2261L205.644 91.698L204.652 91.1842L190.871 92.0965L73.0924 97.2428C70.6676 97.1898 69.9863 99.0067 69.9488 99.9218C67.0372 107.714 60.8678 124.059 59.4834 127.099C58.0989 130.138 59.7655 131.979 60.7719 132.52L64.7055 137.073C66.1199 139.143 68.5431 139.403 69.5779 139.275C109.146 139.464 190.133 139.866 197.537 139.957C204.942 140.048 206.075 135.281 205.717 132.885C207.471 112.094 210.991 70.2178 211.035 69.0378C211.089 67.5628 211.12 67.03 211.066 66.335Z" fill="url(#paint1_linear_4715_10788)"/>
<path d="M197.001 135.181L196.202 131.88C195.826 131.491 195.255 130.268 195.975 128.486L199.232 96.8168L72.7738 101.961L62.1266 130.37C61.8988 130.592 61.6284 131.313 62.3695 132.412C62.6208 132.785 62.7502 132.983 62.8016 133.067L62.5393 132.737C62.706 132.968 62.9019 133.232 62.8016 133.067L64.9712 135.803L197.001 135.181Z" fill="#AF4DEC" fill-opacity="0.8"/>
<g filter="url(#filter0_d_4715_10788)">
<path d="M63.2799 132.344C62.9773 131.924 63.1103 131.297 63.2146 131.035L73.6996 102.712L80.2057 102.508L80.916 103.273L70.8479 131.998C70.3999 132.563 69.6341 132.772 69.3071 132.805L63.944 132.823C63.8487 132.839 63.5826 132.764 63.2799 132.344Z" fill="#471B62" fill-opacity="0.5" shape-rendering="crispEdges"/>
</g>
<g filter="url(#filter1_d_4715_10788)">
<path d="M80.9777 102.41L84.6188 102.26L87.2091 105.036L78.7748 131.356C78.2031 132.317 77.2416 132.572 76.8324 132.58L71.0174 132.525C70.582 132.009 70.6534 131.303 70.7436 131.015L80.9777 102.41Z" fill="#471B62" fill-opacity="0.5" shape-rendering="crispEdges"/>
</g>
<g filter="url(#filter2_d_4715_10788)">
<path d="M78.9996 132.587C78.4375 132.302 78.3691 131.711 78.4052 131.451L88.3769 101.95L93.825 102.094L86.4712 131.464C86.2609 132.484 85.0861 132.568 84.525 132.483L78.9996 132.587Z" fill="#471B62" fill-opacity="0.5" shape-rendering="crispEdges"/>
</g>
<g filter="url(#filter3_d_4715_10788)">
<path d="M86.9698 132.429C86.4695 131.947 86.4707 131.279 86.5338 131.005L90.1194 119.105L96.8375 101.743L101.95 101.443L103.147 101.952L94.3217 131.473C94.0466 132.527 92.9096 132.591 92.3755 132.492L86.9698 132.429Z" fill="#471B62" fill-opacity="0.5" shape-rendering="crispEdges"/>
</g>
<g filter="url(#filter4_d_4715_10788)">
<path d="M111.265 102.048L110.466 100.917L106.338 101.321L98.23 118.791C96.9769 122.582 94.4746 130.366 94.4898 131.185C94.5051 132.004 94.9774 132.445 95.2116 132.564C96.8899 132.546 100.484 132.49 101.432 132.407C102.38 132.323 102.692 131.919 102.729 131.727L111.265 102.048Z" fill="#471B62" fill-opacity="0.5" shape-rendering="crispEdges"/>
</g>
<g filter="url(#filter5_d_4715_10788)">
<path d="M102.895 132.069C102.691 131.68 102.766 131.034 102.829 130.76L111.693 101.116L118.326 101.156L114.89 118.866L111.274 131.298C111.258 132.216 110.219 132.574 109.702 132.638C107.955 132.657 104.331 132.681 103.806 132.625C103.149 132.556 103.149 132.556 102.895 132.069Z" fill="#471B62" fill-opacity="0.5" shape-rendering="crispEdges"/>
</g>
<g filter="url(#filter6_d_4715_10788)">
<path d="M120.737 100.815L125.687 100.6L120.66 118.626L123.159 118.662L119.839 131.662C119.524 132.323 118.655 132.557 118.26 132.592C116.417 132.558 112.624 132.484 112.198 132.459C111.665 132.428 111.538 132.185 111.325 131.78C111.155 131.455 111.213 130.908 111.264 130.675L114.567 119.027L116 119L120.737 100.815Z" fill="#471B62" fill-opacity="0.5" shape-rendering="crispEdges"/>
</g>
<g filter="url(#filter7_d_4715_10788)">
<path d="M130.225 100.391L135.176 100.176L135.967 100.898L128.513 131.458C128.265 132.248 127.413 132.515 127.018 132.55C125.217 132.597 121.469 132.686 120.879 132.665C120.141 132.637 120.219 132.39 119.921 131.823C119.684 131.368 119.781 130.897 119.86 130.718L123.075 118.703L125.901 118.773L130.225 100.391Z" fill="#471B62" fill-opacity="0.5" shape-rendering="crispEdges"/>
</g>
<g filter="url(#filter8_d_4715_10788)">
<path d="M158.323 117.915L157.547 118.012L155.44 130.17C155.131 131.158 154.289 131.392 153.907 131.386C152.16 131.405 148.528 131.454 147.972 131.497C147.416 131.54 146.942 131.175 146.775 130.987L147.242 131.879C147.415 132.367 148.032 132.533 148.319 132.555L154.744 132.394C156.116 132.172 156.281 131.383 156.193 131.016L158.323 117.915Z" fill="#471B62" fill-opacity="0.5" shape-rendering="crispEdges"/>
</g>
<g filter="url(#filter9_d_4715_10788)">
<path d="M156.996 132.576L156.402 131.44L163.236 131.272C164.543 131.084 164.8 130.246 164.765 129.851L170.243 98.6732L170.946 99.0286C169.245 109.528 165.805 130.732 165.657 131.554C165.509 132.376 164.406 132.519 163.873 132.488L156.996 132.576Z" fill="#471B62" fill-opacity="0.5" shape-rendering="crispEdges"/>
</g>
<g filter="url(#filter10_d_4715_10788)">
<path d="M177.433 117.732L176.657 117.828L173.831 117.758L176.827 98.418L171.387 98.6833L165.889 131.008C166.136 131.953 166.692 132.344 166.939 132.421L174.144 132.369C175.188 132.153 175.439 131.553 175.434 131.28L177.433 117.732Z" fill="#471B62" fill-opacity="0.5" shape-rendering="crispEdges"/>
</g>
<g filter="url(#filter11_d_4715_10788)">
<path d="M176.685 132.488L175.836 130.866L184.349 130.748L186.356 117.609L187.341 117.713C186.833 121.94 185.723 130.608 185.346 131.466C184.968 132.325 184.107 132.39 183.724 132.315L176.685 132.488Z" fill="#471B62" fill-opacity="0.5" shape-rendering="crispEdges"/>
</g>
<path d="M186.673 132.217L185.909 130.757L194.504 130.597L198.352 97.6888L199.395 98.693L196.017 130.528C195.68 131.779 195.05 132.102 194.778 132.107L186.673 132.217Z" fill="#471B62" fill-opacity="0.5"/>
<g filter="url(#filter13_d_4715_10788)">
<path d="M145.738 99.828L150.36 99.578L146.449 118.157L149.357 118.185C148.571 122.144 146.938 130.3 146.694 131.254C146.449 132.209 145.624 132.434 145.241 132.428L138.118 132.438C137.679 131.758 137.698 131.177 137.763 130.971L140.437 118.515L141.379 118.538L145.738 99.828Z" fill="#471B62" fill-opacity="0.5" shape-rendering="crispEdges"/>
</g>
<g filter="url(#filter14_d_4715_10788)">
<path d="M136.241 100.036L140.74 99.7469L136.01 118.341L140.311 118.466L137.525 131.497C137.246 132.386 136.466 132.567 136.111 132.547C134.173 132.528 130.165 132.478 129.64 132.422C128.984 132.352 128.937 132.066 128.767 131.742C128.632 131.483 128.775 130.705 128.864 130.348L136.241 100.036Z" fill="#471B62" fill-opacity="0.5" shape-rendering="crispEdges"/>
</g>
<path d="M73.6117 102.767L80.199 102.522L70.0035 131.004C69.5586 131.732 68.7909 131.845 68.4628 131.81C67.0032 131.851 63.9776 131.927 63.5513 131.902C63.125 131.877 63.1473 131.459 63.2117 131.253L73.6117 102.767Z" fill="#DBCFE2"/>
<path d="M80.9653 102.426L84.8111 102.272L81.6878 119.199C80.4476 122.948 77.9286 130.569 77.774 131.064C77.6195 131.558 76.8446 131.722 76.4765 131.743C74.9205 131.731 71.6856 131.709 71.1945 131.719C70.7033 131.728 70.7351 131.236 70.8123 130.989L80.9653 102.426Z" fill="#DBCFE2"/>
<path d="M96.8494 101.76L101.838 101.422L102.664 101.816C99.8709 110.821 94.1912 129.127 93.8203 130.313C93.4494 131.499 92.5896 131.646 92.2061 131.572C90.7736 131.598 87.7526 131.63 87.1286 131.544C86.5047 131.457 86.5573 130.913 86.6616 130.652L90.2124 119.08L96.8494 101.76Z" fill="#DBCFE2"/>
<path d="M111.61 101.148L117.302 101.164L113.742 118.836L110.481 130.566C110.104 131.424 109.489 131.567 109.229 131.531L103.295 131.642C102.804 131.651 102.835 131.159 102.913 130.912L111.61 101.148Z" fill="#DBCFE2"/>
<path d="M119.053 130.533L122.024 118.645L125.824 100.642L120.831 100.776L116.013 119.003L114.538 118.949C113.707 121.967 111.953 128.299 111.582 129.486C111.211 130.672 111.205 131.267 111.249 131.416C113.202 131.462 117.295 131.557 118.049 131.576C118.802 131.594 119.032 130.889 119.053 130.533Z" fill="#DBCFE2"/>
<path d="M127.759 130.409L135.097 100.22L130.186 100.311L125.861 118.694L123.077 118.705C122.003 122.573 119.832 130.426 119.743 130.886C119.653 131.346 119.795 131.513 119.878 131.539C121.748 131.558 125.709 131.585 126.592 131.536C127.476 131.487 127.738 130.764 127.759 130.409Z" fill="#DBCFE2"/>
<path d="M136.848 130.613L139.526 118.362L136.005 118.346L140.611 99.7127L136.237 100.04L128.713 131.256C130.679 131.329 134.817 131.47 135.636 131.454C136.454 131.439 136.785 130.887 136.848 130.613Z" fill="#DBCFE2"/>
<path d="M155.425 129.772L157.497 117.942L156.756 117.71L160.258 99.1386L155.47 99.2689L151.605 118.134L149.354 118.176L146.799 130.465C146.715 131.253 147.323 131.466 147.637 131.473C149.439 131.494 153.287 131.491 154.266 131.309C155.246 131.127 155.447 130.209 155.425 129.772Z" fill="#DBCFE2"/>
<path d="M185.171 117.704L186.398 117.681L184.353 130.944L175.835 130.857L178.008 117.838L179.356 117.649L182.066 98.3552L187.507 98.0898L185.171 117.704Z" fill="#DBCFE2"/>
<path d="M171.39 98.6799L176.706 98.3759L173.756 118.002L176.741 117.782C176.121 121.861 174.867 130.149 174.812 130.674C174.756 131.199 174.032 131.289 173.676 131.269L165.892 131.005L171.39 98.6799Z" fill="#DBCFE2"/>
<path d="M170.118 98.6248L165.415 98.9173L161.959 117.775L158.647 117.959L156.4 131.431C158.31 131.395 162.113 131.291 163.358 131.301C164.292 131.308 164.694 130.498 164.768 130.046L170.118 98.6248Z" fill="#DBCFE2"/>
<path d="M146.138 129.978L148.415 118.144L146.368 118.183L150.442 99.5184L145.778 99.6874L141.337 118.44L140.395 118.417L137.69 131.405C139.615 131.465 143.735 131.546 144.814 131.395C145.892 131.244 146.146 130.388 146.138 129.978Z" fill="#DBCFE2"/>
<path d="M110.471 100.931L106.015 101.301L98.2387 119.011C97.0899 122.54 94.7391 129.811 94.5257 130.667C94.3124 131.523 94.8048 131.726 95.0777 131.721C96.6196 131.706 99.9405 131.655 100.889 131.572C101.837 131.489 102.061 130.786 102.055 130.445L110.471 100.931Z" fill="#DBCFE2"/>
<path d="M88.3761 101.949L93.2489 101.98L89.6314 118.753C88.4428 122.337 85.9874 129.712 85.6752 130.536C85.3631 131.361 84.5488 131.608 84.1807 131.629C82.8846 131.653 80.0716 131.714 79.1882 131.763C78.3047 131.812 78.4521 131.08 78.6362 130.709L88.3761 101.949Z" fill="#DBCFE2"/>
<path d="M176.798 98.0111L180.435 97.6566L181.756 98.2051L179.254 117.7L173.813 117.965L176.798 98.0111Z" fill="#AF4DEC"/>
<path d="M160.445 98.551L164.032 98.3048L165.308 98.8752L162.104 117.798L156.749 117.908L160.445 98.551Z" fill="#AF4DEC"/>
<path d="M150.574 98.8793L154.166 98.735L155.426 99.3414L151.686 118.166L146.33 118.124L150.574 98.8793Z" fill="#AF4DEC"/>
<path d="M140.83 99.2105L144.425 99.1715L145.666 99.8145L141.376 118.521L136.024 118.323L140.83 99.2105Z" fill="#AF4DEC"/>
<path d="M125.833 99.8922L128.872 99.8427L130.089 100.473L125.884 118.811L120.637 118.616L125.833 99.8922Z" fill="#AF4DEC"/>
<path d="M116.476 100.183L119.516 100.215L120.715 100.877L116.02 119.096L111.194 118.722L116.476 100.183Z" fill="#AF4DEC"/>
<path d="M93.4549 100.936L96.4021 101.097L97.5418 101.796L92.3393 119.421L87.6714 118.85L93.4549 100.936Z" fill="#AF4DEC"/>
<path d="M85.1745 101.343L87.5293 101.116L88.669 101.815L83.4665 119.44L79.0818 119.308L79.5459 115.656L85.1745 101.343Z" fill="#AF4DEC"/>
<path d="M102.41 100.691L105.446 100.845L106.618 101.555L101.197 119.571L96.3897 119.004L102.41 100.691Z" fill="#AF4DEC"/>
<path d="M158.553 71.3972L157.959 70.2619L155.437 71.1687L155.707 72.4739C157.449 72.8017 158.331 71.8927 158.553 71.3972Z" fill="#D798FF"/>
<path d="M147.983 71.9863L147.261 70.9275L144.861 72.1204L145.281 73.3854C147.049 73.5092 147.819 72.5043 147.983 71.9863Z" fill="#D798FF"/>
<path d="M169.592 70.3816L168.998 69.2462L166.476 70.1531L166.746 71.4582C168.489 71.786 169.37 70.877 169.592 70.3816Z" fill="#D798FF"/>
<path d="M172.965 82.5612L172.877 80.0243L177.294 79.7781L178.653 82.3731L172.965 82.5612Z" fill="url(#paint2_linear_4715_10788)"/>
<path d="M177.342 79.8464L177.829 77.4217L173.045 77.7567L172.801 80.054L177.342 79.8464Z" fill="#D798FF"/>
<path d="M179.313 117.571L181.815 98.0766L180.499 97.7326L177.603 113.713L179.313 117.571Z" fill="#471B62"/>
<path d="M175.098 113.882L177.592 113.712L179.263 117.694L173.946 117.998L175.098 113.882Z" fill="#D798FF"/>
<path d="M162.135 117.678L165.339 98.7547L164.059 98.3838L160.603 113.873L162.135 117.678Z" fill="#471B62"/>
<path d="M158.155 113.971L160.612 113.874L162.101 117.798L156.867 117.949L158.155 113.971Z" fill="#D798FF"/>
<path d="M151.74 118.059L155.48 99.2341L154.211 98.827L150.317 114.212L151.74 118.059Z" fill="#471B62"/>
<path d="M147.839 114.241L150.298 114.214L151.675 118.178L146.438 118.181L147.839 114.241Z" fill="#D798FF"/>
<path d="M141.44 118.397L145.73 99.6897L144.473 99.2456L140.13 114.51L141.44 118.397Z" fill="#471B62"/>
<path d="M137.657 114.477L140.115 114.522L141.376 118.525L136.141 118.374L137.657 114.477Z" fill="#D798FF"/>
<path d="M125.932 118.699L130.137 100.361L128.905 99.9256L124.648 114.889L125.932 118.699Z" fill="#471B62"/>
<path d="M121.696 114.884L124.653 114.898L125.889 118.822L120.66 118.629L121.696 114.884Z" fill="#D798FF"/>
<path d="M116.085 118.994L120.78 100.776L119.56 100.308L114.331 115.032L116.085 118.994Z" fill="#471B62"/>
<path d="M112.275 115.048L114.364 115.091L116.023 119.085L111.197 118.712L112.275 115.048Z" fill="#D798FF"/>
<path d="M92.389 119.321L97.5915 101.696L96.3658 101.029L90.8296 115.369L92.389 119.321Z" fill="#471B62"/>
<path d="M88.8538 115.317L90.8785 115.448L92.3457 119.427L87.6778 118.856L88.8538 115.317Z" fill="#D798FF"/>
<path d="M83.514 119.344L88.7165 101.719L87.4908 101.052L81.9546 115.393L83.514 119.344Z" fill="#471B62"/>
<path d="M79.4935 115.793L81.9856 115.475L83.4528 119.453L79.068 119.322L79.4935 115.793Z" fill="#D798FF"/>
<path d="M101.263 119.466L106.684 101.45L105.423 100.773L99.6701 115.436L101.263 119.466Z" fill="#471B62"/>
<path d="M97.6302 115.392L99.7156 115.518L101.214 119.576L96.4063 119.01L97.6302 115.392Z" fill="#D798FF"/>
<path d="M136.868 81.7134L136.273 80.5781L122.054 90.9155L122.691 92.1319C126.209 91.9434 133.484 91.7093 134.105 91.6323C134.726 91.5552 134.874 91.1266 134.87 90.9219L136.868 81.7134Z" fill="#562A7F" fill-opacity="0.8"/>
<path d="M107.191 83.3991L106.602 82.2734L92.5346 92.5065L93.1661 93.7126C96.648 93.5287 103.85 93.3027 104.464 93.2268C105.079 93.1509 105.224 92.7263 105.221 92.5235L107.191 83.3991Z" fill="#562A7F" fill-opacity="0.8"/>
<path d="M111.094 71.5572L110.5 70.4219L96.7904 79.9181L97.3757 81.0362C100.604 80.8657 107.28 80.6562 107.85 80.5858C108.42 80.5154 108.555 80.1218 108.551 79.9338L111.094 71.5572Z" fill="#562A7F" fill-opacity="0.8"/>
<path d="M97.1827 72.8052L96.6016 71.6953L83.1984 80.9792L83.7707 82.0723C86.9265 81.9057 93.4538 81.7008 94.0108 81.6321C94.5678 81.5633 94.6999 81.1784 94.6963 80.9946L97.1827 72.8052Z" fill="#562A7F" fill-opacity="0.8"/>
<path d="M93.1153 84.7313L92.5156 83.5859L78.6847 93.1662L79.2752 94.2942C82.5318 94.1222 89.2674 93.9108 89.8422 93.8398C90.417 93.7688 90.5533 93.3717 90.5496 93.182L93.1153 84.7313Z" fill="#562A7F" fill-opacity="0.8"/>
<path d="M125.243 70.7212L124.648 69.5859L110.939 79.0821L111.524 80.2002C114.752 80.0297 121.429 79.8202 121.998 79.7499C122.568 79.6795 122.703 79.2859 122.7 79.0978L125.243 70.7212Z" fill="#562A7F" fill-opacity="0.8"/>
<path d="M140.378 69.3059L139.75 68.1719L125.663 78.3539L126.281 79.4707C129.593 79.193 136.609 78.6725 137.192 78.5825C137.776 78.4926 137.909 78.0884 137.902 77.8975L140.378 69.3059Z" fill="#562A7F" fill-opacity="0.8"/>
<path d="M121.852 82.4087L121.258 81.2734L107.039 91.6108L107.676 92.8272C111.193 92.6387 118.469 92.4047 119.089 92.3276C119.71 92.2505 119.858 91.8219 119.854 91.6173L121.852 82.4087Z" fill="#562A7F" fill-opacity="0.8"/>
<path d="M161.52 83.5924L161.432 81.0556L165.849 80.8094L167.208 83.4044L161.52 83.5924Z" fill="url(#paint3_linear_4715_10788)"/>
<path d="M167.893 80.3584L166.303 78.5047L165.893 80.6824L167.294 83.3584L167.893 80.3584Z" fill="#AF4DEC"/>
<path d="M165.889 80.9011L166.376 78.4764L161.592 78.8114L161.348 81.1087L165.889 80.9011Z" fill="#D798FF"/>
<path d="M150.114 84.3112L150.026 81.7743L154.443 81.5281L155.801 84.1231L150.114 84.3112Z" fill="url(#paint4_linear_4715_10788)"/>
<path d="M156.432 80.9834L154.842 79.1297L154.432 81.3074L155.833 83.9834L156.432 80.9834Z" fill="#AF4DEC"/>
<path d="M154.483 81.5964L154.97 79.1717L150.186 79.5067L149.942 81.804L154.483 81.5964Z" fill="#D798FF"/>
<path d="M139.231 84.8268L139.143 82.29L143.56 82.0437L144.919 84.6387L139.231 84.8268Z" fill="url(#paint5_linear_4715_10788)"/>
<path d="M145.565 81.5303L143.974 79.6766L143.565 81.8542L144.966 84.5303L145.565 81.5303Z" fill="#AF4DEC"/>
<path d="M143.608 82.1199L144.095 79.6951L139.311 80.0301L139.067 82.3275L143.608 82.1199Z" fill="#D798FF"/>
<g filter="url(#filter15_d_4715_10788)">
</g>
<g filter="url(#filter16_d_4715_10788)">
<path d="M158.427 68.5895L157.138 65.3381L152.666 67.0593L154.256 71.083C154.988 71.6916 156.071 71.7861 156.881 71.3615C158.584 70.4699 158.685 69.2807 158.427 68.5895Z" fill="url(#paint6_linear_4715_10788)"/>
<ellipse rx="2.47145" ry="1.83071" transform="matrix(-0.885926 0.463827 0.463827 0.885926 154.855 66.1198)" fill="#D798FF"/>
</g>
<g filter="url(#filter17_d_4715_10788)">
<path d="M147.835 69.3893L146.326 66.2336L141.983 68.2564L143.844 72.162C144.616 72.7192 145.703 72.7394 146.483 72.2604C148.121 71.2546 148.14 70.0612 147.835 69.3893Z" fill="url(#paint7_linear_4715_10788)"/>
<ellipse rx="2.47145" ry="1.83071" transform="matrix(-0.852158 0.523285 0.523285 0.852158 144.102 67.1736)" fill="#D798FF"/>
</g>
<g filter="url(#filter18_d_4715_10788)">
<path d="M169.536 67.7379L168.247 64.4866L163.775 66.2077L165.365 70.2314C166.097 70.8401 167.18 70.9345 167.991 70.51C169.694 69.6184 169.794 68.4291 169.536 67.7379Z" fill="url(#paint8_linear_4715_10788)"/>
<ellipse rx="2.47145" ry="1.83071" transform="matrix(-0.885926 0.463827 0.463827 0.885926 165.972 65.2604)" fill="#D798FF"/>
</g>
<path d="M136.781 80.5312L124.881 81.2856L121.917 91.4129L134.273 90.9366L136.781 80.5312Z" fill="url(#paint9_linear_4715_10788)"/>
<path d="M107.094 82.2422L95.9309 83.0237L92.1063 93.0852L104.296 92.4892L107.094 82.2422Z" fill="url(#paint10_linear_4715_10788)"/>
<path d="M110.914 70.2031L99.9458 71.1028L96.4001 80.4306L107.701 79.8781L109.308 75.0406L110.914 70.2031Z" fill="url(#paint11_linear_4715_10788)"/>
<path d="M97.0078 71.4766L86.2848 72.3562L82.8183 81.4755L93.8667 80.9353L95.4373 76.2059L97.0078 71.4766Z" fill="url(#paint12_linear_4715_10788)"/>
<path d="M92.9297 83.375L81.8644 84.2827L78.2873 93.693L89.6883 93.1356L91.309 88.2553L92.9297 83.375Z" fill="url(#paint13_linear_4715_10788)"/>
<path d="M125.047 69.375L114.079 70.2747L110.533 79.6025L121.834 79.05L123.44 74.2125L125.047 69.375Z" fill="url(#paint14_linear_4715_10788)"/>
<path d="M140.164 67.9219L128.261 68.8383L125.428 78.7813L137.021 77.8541L138.592 72.888L140.164 67.9219Z" fill="url(#paint15_linear_4715_10788)"/>
<path d="M121.742 81.2188L109.842 81.9731L106.878 92.1004L119.234 91.6241L121.742 81.2188Z" fill="url(#paint16_linear_4715_10788)"/>
<path d="M136.781 80.5312L124.881 81.2856L121.917 91.4129L134.273 90.9366L136.781 80.5312Z" fill="url(#paint17_linear_4715_10788)"/>
<path d="M107.094 82.2422L95.9309 83.0237L92.1063 93.0852L104.296 92.4892L107.094 82.2422Z" fill="url(#paint18_linear_4715_10788)"/>
<path d="M110.914 70.2031L99.9458 71.1028L96.4001 80.4306L107.701 79.8781L109.308 75.0406L110.914 70.2031Z" fill="url(#paint19_linear_4715_10788)"/>
<path d="M97.0078 71.4766L86.2848 72.3562L82.8183 81.4755L93.8667 80.9353L95.4373 76.2059L97.0078 71.4766Z" fill="url(#paint20_linear_4715_10788)"/>
<path d="M92.9297 83.375L81.8644 84.2827L78.2873 93.693L89.6883 93.1356L91.309 88.2553L92.9297 83.375Z" fill="url(#paint21_linear_4715_10788)"/>
<path d="M125.047 69.375L114.079 70.2747L110.533 79.6025L121.834 79.05L123.44 74.2125L125.047 69.375Z" fill="url(#paint22_linear_4715_10788)"/>
<path d="M140.164 67.9219L128.261 68.8383L125.428 78.7813L137.021 77.8541L138.592 72.888L140.164 67.9219Z" fill="url(#paint23_linear_4715_10788)"/>
<path d="M121.742 81.2188L109.842 81.9731L106.878 92.1004L119.234 91.6241L121.742 81.2188Z" fill="url(#paint24_linear_4715_10788)"/>
</g>
<defs>
<filter id="filter0_d_4715_10788" x="59.0938" y="102.508" width="25.8203" height="38.3203" filterUnits="userSpaceOnUse" color-interpolation-filters="sRGB">
<feFlood flood-opacity="0" result="BackgroundImageFix"/>
<feColorMatrix in="SourceAlpha" type="matrix" values="0 0 0 0 0 0 0 0 0 0 0 0 0 0 0 0 0 0 127 0" result="hardAlpha"/>
<feOffset dy="4"/>
<feGaussianBlur stdDeviation="2"/>
<feComposite in2="hardAlpha" operator="out"/>
<feColorMatrix type="matrix" values="0 0 0 0 0 0 0 0 0 0 0 0 0 0 0 0 0 0 0.1 0"/>
<feBlend mode="normal" in2="BackgroundImageFix" result="effect1_dropShadow_4715_10788"/>
<feBlend mode="normal" in="SourceGraphic" in2="effect1_dropShadow_4715_10788" result="shape"/>
</filter>
<filter id="filter1_d_4715_10788" x="66.6719" y="102.258" width="24.5391" height="38.3203" filterUnits="userSpaceOnUse" color-interpolation-filters="sRGB">
<feFlood flood-opacity="0" result="BackgroundImageFix"/>
<feColorMatrix in="SourceAlpha" type="matrix" values="0 0 0 0 0 0 0 0 0 0 0 0 0 0 0 0 0 0 127 0" result="hardAlpha"/>
<feOffset dy="4"/>
<feGaussianBlur stdDeviation="2"/>
<feComposite in2="hardAlpha" operator="out"/>
<feColorMatrix type="matrix" values="0 0 0 0 0 0 0 0 0 0 0 0 0 0 0 0 0 0 0.1 0"/>
<feBlend mode="normal" in2="BackgroundImageFix" result="effect1_dropShadow_4715_10788"/>
<feBlend mode="normal" in="SourceGraphic" in2="effect1_dropShadow_4715_10788" result="shape"/>
</filter>
<filter id="filter2_d_4715_10788" x="74.3984" y="101.953" width="23.4297" height="38.6328" filterUnits="userSpaceOnUse" color-interpolation-filters="sRGB">
<feFlood flood-opacity="0" result="BackgroundImageFix"/>
<feColorMatrix in="SourceAlpha" type="matrix" values="0 0 0 0 0 0 0 0 0 0 0 0 0 0 0 0 0 0 127 0" result="hardAlpha"/>
<feOffset dy="4"/>
<feGaussianBlur stdDeviation="2"/>
<feComposite in2="hardAlpha" operator="out"/>
<feColorMatrix type="matrix" values="0 0 0 0 0 0 0 0 0 0 0 0 0 0 0 0 0 0 0.1 0"/>
<feBlend mode="normal" in2="BackgroundImageFix" result="effect1_dropShadow_4715_10788"/>
<feBlend mode="normal" in="SourceGraphic" in2="effect1_dropShadow_4715_10788" result="shape"/>
</filter>
<filter id="filter3_d_4715_10788" x="82.5078" y="101.445" width="24.6406" height="39.0781" filterUnits="userSpaceOnUse" color-interpolation-filters="sRGB">
<feFlood flood-opacity="0" result="BackgroundImageFix"/>
<feColorMatrix in="SourceAlpha" type="matrix" values="0 0 0 0 0 0 0 0 0 0 0 0 0 0 0 0 0 0 127 0" result="hardAlpha"/>
<feOffset dy="4"/>
<feGaussianBlur stdDeviation="2"/>
<feComposite in2="hardAlpha" operator="out"/>
<feColorMatrix type="matrix" values="0 0 0 0 0 0 0 0 0 0 0 0 0 0 0 0 0 0 0.1 0"/>
<feBlend mode="normal" in2="BackgroundImageFix" result="effect1_dropShadow_4715_10788"/>
<feBlend mode="normal" in="SourceGraphic" in2="effect1_dropShadow_4715_10788" result="shape"/>
</filter>
<filter id="filter4_d_4715_10788" x="90.4922" y="100.914" width="24.7734" height="39.6484" filterUnits="userSpaceOnUse" color-interpolation-filters="sRGB">
<feFlood flood-opacity="0" result="BackgroundImageFix"/>
<feColorMatrix in="SourceAlpha" type="matrix" values="0 0 0 0 0 0 0 0 0 0 0 0 0 0 0 0 0 0 127 0" result="hardAlpha"/>
<feOffset dy="4"/>
<feGaussianBlur stdDeviation="2"/>
<feComposite in2="hardAlpha" operator="out"/>
<feColorMatrix type="matrix" values="0 0 0 0 0 0 0 0 0 0 0 0 0 0 0 0 0 0 0.1 0"/>
<feBlend mode="normal" in2="BackgroundImageFix" result="effect1_dropShadow_4715_10788"/>
<feBlend mode="normal" in="SourceGraphic" in2="effect1_dropShadow_4715_10788" result="shape"/>
</filter>
<filter id="filter5_d_4715_10788" x="98.7656" y="101.117" width="23.5625" height="39.5391" filterUnits="userSpaceOnUse" color-interpolation-filters="sRGB">
<feFlood flood-opacity="0" result="BackgroundImageFix"/>
<feColorMatrix in="SourceAlpha" type="matrix" values="0 0 0 0 0 0 0 0 0 0 0 0 0 0 0 0 0 0 127 0" result="hardAlpha"/>
<feOffset dy="4"/>
<feGaussianBlur stdDeviation="2"/>
<feComposite in2="hardAlpha" operator="out"/>
<feColorMatrix type="matrix" values="0 0 0 0 0 0 0 0 0 0 0 0 0 0 0 0 0 0 0.1 0"/>
<feBlend mode="normal" in2="BackgroundImageFix" result="effect1_dropShadow_4715_10788"/>
<feBlend mode="normal" in="SourceGraphic" in2="effect1_dropShadow_4715_10788" result="shape"/>
</filter>
<filter id="filter6_d_4715_10788" x="107.211" y="100.602" width="22.4766" height="39.9922" filterUnits="userSpaceOnUse" color-interpolation-filters="sRGB">
<feFlood flood-opacity="0" result="BackgroundImageFix"/>
<feColorMatrix in="SourceAlpha" type="matrix" values="0 0 0 0 0 0 0 0 0 0 0 0 0 0 0 0 0 0 127 0" result="hardAlpha"/>
<feOffset dy="4"/>
<feGaussianBlur stdDeviation="2"/>
<feComposite in2="hardAlpha" operator="out"/>
<feColorMatrix type="matrix" values="0 0 0 0 0 0 0 0 0 0 0 0 0 0 0 0 0 0 0.1 0"/>
<feBlend mode="normal" in2="BackgroundImageFix" result="effect1_dropShadow_4715_10788"/>
<feBlend mode="normal" in="SourceGraphic" in2="effect1_dropShadow_4715_10788" result="shape"/>
</filter>
<filter id="filter7_d_4715_10788" x="115.773" y="100.172" width="24.1953" height="40.4922" filterUnits="userSpaceOnUse" color-interpolation-filters="sRGB">
<feFlood flood-opacity="0" result="BackgroundImageFix"/>
<feColorMatrix in="SourceAlpha" type="matrix" values="0 0 0 0 0 0 0 0 0 0 0 0 0 0 0 0 0 0 127 0" result="hardAlpha"/>
<feOffset dy="4"/>
<feGaussianBlur stdDeviation="2"/>
<feComposite in2="hardAlpha" operator="out"/>
<feColorMatrix type="matrix" values="0 0 0 0 0 0 0 0 0 0 0 0 0 0 0 0 0 0 0.1 0"/>
<feBlend mode="normal" in2="BackgroundImageFix" result="effect1_dropShadow_4715_10788"/>
<feBlend mode="normal" in="SourceGraphic" in2="effect1_dropShadow_4715_10788" result="shape"/>
</filter>
<filter id="filter8_d_4715_10788" x="142.773" y="117.914" width="19.5469" height="22.6406" filterUnits="userSpaceOnUse" color-interpolation-filters="sRGB">
<feFlood flood-opacity="0" result="BackgroundImageFix"/>
<feColorMatrix in="SourceAlpha" type="matrix" values="0 0 0 0 0 0 0 0 0 0 0 0 0 0 0 0 0 0 127 0" result="hardAlpha"/>
<feOffset dy="4"/>
<feGaussianBlur stdDeviation="2"/>
<feComposite in2="hardAlpha" operator="out"/>
<feColorMatrix type="matrix" values="0 0 0 0 0 0 0 0 0 0 0 0 0 0 0 0 0 0 0.1 0"/>
<feBlend mode="normal" in2="BackgroundImageFix" result="effect1_dropShadow_4715_10788"/>
<feBlend mode="normal" in="SourceGraphic" in2="effect1_dropShadow_4715_10788" result="shape"/>
</filter>
<filter id="filter9_d_4715_10788" x="152.398" y="98.6719" width="22.5469" height="41.9062" filterUnits="userSpaceOnUse" color-interpolation-filters="sRGB">
<feFlood flood-opacity="0" result="BackgroundImageFix"/>
<feColorMatrix in="SourceAlpha" type="matrix" values="0 0 0 0 0 0 0 0 0 0 0 0 0 0 0 0 0 0 127 0" result="hardAlpha"/>
<feOffset dy="4"/>
<feGaussianBlur stdDeviation="2"/>
<feComposite in2="hardAlpha" operator="out"/>
<feColorMatrix type="matrix" values="0 0 0 0 0 0 0 0 0 0 0 0 0 0 0 0 0 0 0.1 0"/>
<feBlend mode="normal" in2="BackgroundImageFix" result="effect1_dropShadow_4715_10788"/>
<feBlend mode="normal" in="SourceGraphic" in2="effect1_dropShadow_4715_10788" result="shape"/>
</filter>
<filter id="filter10_d_4715_10788" x="161.891" y="98.4141" width="19.5391" height="42.0078" filterUnits="userSpaceOnUse" color-interpolation-filters="sRGB">
<feFlood flood-opacity="0" result="BackgroundImageFix"/>
<feColorMatrix in="SourceAlpha" type="matrix" values="0 0 0 0 0 0 0 0 0 0 0 0 0 0 0 0 0 0 127 0" result="hardAlpha"/>
<feOffset dy="4"/>
<feGaussianBlur stdDeviation="2"/>
<feComposite in2="hardAlpha" operator="out"/>
<feColorMatrix type="matrix" values="0 0 0 0 0 0 0 0 0 0 0 0 0 0 0 0 0 0 0.1 0"/>
<feBlend mode="normal" in2="BackgroundImageFix" result="effect1_dropShadow_4715_10788"/>
<feBlend mode="normal" in="SourceGraphic" in2="effect1_dropShadow_4715_10788" result="shape"/>
</filter>
<filter id="filter11_d_4715_10788" x="171.836" y="117.609" width="19.5078" height="22.875" filterUnits="userSpaceOnUse" color-interpolation-filters="sRGB">
<feFlood flood-opacity="0" result="BackgroundImageFix"/>
<feColorMatrix in="SourceAlpha" type="matrix" values="0 0 0 0 0 0 0 0 0 0 0 0 0 0 0 0 0 0 127 0" result="hardAlpha"/>
<feOffset dy="4"/>
<feGaussianBlur stdDeviation="2"/>
<feComposite in2="hardAlpha" operator="out"/>
<feColorMatrix type="matrix" values="0 0 0 0 0 0 0 0 0 0 0 0 0 0 0 0 0 0 0.1 0"/>
<feBlend mode="normal" in2="BackgroundImageFix" result="effect1_dropShadow_4715_10788"/>
<feBlend mode="normal" in="SourceGraphic" in2="effect1_dropShadow_4715_10788" result="shape"/>
</filter>
<filter id="filter13_d_4715_10788" x="133.727" y="99.5781" width="20.6328" height="40.8594" filterUnits="userSpaceOnUse" color-interpolation-filters="sRGB">
<feFlood flood-opacity="0" result="BackgroundImageFix"/>
<feColorMatrix in="SourceAlpha" type="matrix" values="0 0 0 0 0 0 0 0 0 0 0 0 0 0 0 0 0 0 127 0" result="hardAlpha"/>
<feOffset dy="4"/>
<feGaussianBlur stdDeviation="2"/>
<feComposite in2="hardAlpha" operator="out"/>
<feColorMatrix type="matrix" values="0 0 0 0 0 0 0 0 0 0 0 0 0 0 0 0 0 0 0.1 0"/>
<feBlend mode="normal" in2="BackgroundImageFix" result="effect1_dropShadow_4715_10788"/>
<feBlend mode="normal" in="SourceGraphic" in2="effect1_dropShadow_4715_10788" result="shape"/>
</filter>
<filter id="filter14_d_4715_10788" x="124.711" y="99.75" width="20.0312" height="40.7969" filterUnits="userSpaceOnUse" color-interpolation-filters="sRGB">
<feFlood flood-opacity="0" result="BackgroundImageFix"/>
<feColorMatrix in="SourceAlpha" type="matrix" values="0 0 0 0 0 0 0 0 0 0 0 0 0 0 0 0 0 0 127 0" result="hardAlpha"/>
<feOffset dy="4"/>
<feGaussianBlur stdDeviation="2"/>
<feComposite in2="hardAlpha" operator="out"/>
<feColorMatrix type="matrix" values="0 0 0 0 0 0 0 0 0 0 0 0 0 0 0 0 0 0 0.1 0"/>
<feBlend mode="normal" in2="BackgroundImageFix" result="effect1_dropShadow_4715_10788"/>
<feBlend mode="normal" in="SourceGraphic" in2="effect1_dropShadow_4715_10788" result="shape"/>
</filter>
<filter id="filter15_d_4715_10788" x="170.836" y="62.5469" width="14.0156" height="15.5" filterUnits="userSpaceOnUse" color-interpolation-filters="sRGB">
<feFlood flood-opacity="0" result="BackgroundImageFix"/>
<feColorMatrix in="SourceAlpha" type="matrix" values="0 0 0 0 0 0 0 0 0 0 0 0 0 0 0 0 0 0 127 0" result="hardAlpha"/>
<feOffset dy="4"/>
<feGaussianBlur stdDeviation="2"/>
<feComposite in2="hardAlpha" operator="out"/>
<feColorMatrix type="matrix" values="0 0 0 0 0 0 0 0 0 0 0 0 0 0 0 0 0 0 0.25 0"/>
<feBlend mode="normal" in2="BackgroundImageFix" result="effect1_dropShadow_4715_10788"/>
<feBlend mode="normal" in="SourceGraphic" in2="effect1_dropShadow_4715_10788" result="shape"/>
</filter>
<filter id="filter16_d_4715_10788" x="148.508" y="64.1328" width="14.0234" height="15.4922" filterUnits="userSpaceOnUse" color-interpolation-filters="sRGB">
<feFlood flood-opacity="0" result="BackgroundImageFix"/>
<feColorMatrix in="SourceAlpha" type="matrix" values="0 0 0 0 0 0 0 0 0 0 0 0 0 0 0 0 0 0 127 0" result="hardAlpha"/>
<feOffset dy="4"/>
<feGaussianBlur stdDeviation="2"/>
<feComposite in2="hardAlpha" operator="out"/>
<feColorMatrix type="matrix" values="0 0 0 0 0 0 0 0 0 0 0 0 0 0 0 0 0 0 0.25 0"/>
<feBlend mode="normal" in2="BackgroundImageFix" result="effect1_dropShadow_4715_10788"/>
<feBlend mode="normal" in="SourceGraphic" in2="effect1_dropShadow_4715_10788" result="shape"/>
</filter>
<filter id="filter17_d_4715_10788" x="137.789" y="65.1484" width="14.1953" height="15.4531" filterUnits="userSpaceOnUse" color-interpolation-filters="sRGB">
<feFlood flood-opacity="0" result="BackgroundImageFix"/>
<feColorMatrix in="SourceAlpha" type="matrix" values="0 0 0 0 0 0 0 0 0 0 0 0 0 0 0 0 0 0 127 0" result="hardAlpha"/>
<feOffset dy="4"/>
<feGaussianBlur stdDeviation="2"/>
<feComposite in2="hardAlpha" operator="out"/>
<feColorMatrix type="matrix" values="0 0 0 0 0 0 0 0 0 0 0 0 0 0 0 0 0 0 0.25 0"/>
<feBlend mode="normal" in2="BackgroundImageFix" result="effect1_dropShadow_4715_10788"/>
<feBlend mode="normal" in="SourceGraphic" in2="effect1_dropShadow_4715_10788" result="shape"/>
</filter>
<filter id="filter18_d_4715_10788" x="159.625" y="63.2734" width="14.0156" height="15.5" filterUnits="userSpaceOnUse" color-interpolation-filters="sRGB">
<feFlood flood-opacity="0" result="BackgroundImageFix"/>
<feColorMatrix in="SourceAlpha" type="matrix" values="0 0 0 0 0 0 0 0 0 0 0 0 0 0 0 0 0 0 127 0" result="hardAlpha"/>
<feOffset dy="4"/>
<feGaussianBlur stdDeviation="2"/>
<feComposite in2="hardAlpha" operator="out"/>
<feColorMatrix type="matrix" values="0 0 0 0 0 0 0 0 0 0 0 0 0 0 0 0 0 0 0.25 0"/>
<feBlend mode="normal" in2="BackgroundImageFix" result="effect1_dropShadow_4715_10788"/>
<feBlend mode="normal" in="SourceGraphic" in2="effect1_dropShadow_4715_10788" result="shape"/>
</filter>
<linearGradient id="paint0_linear_4715_10788" x1="203.366" y1="51.6136" x2="82.9427" y2="114.662" gradientUnits="userSpaceOnUse">
<stop stop-color="#AF4DEC"/>
<stop offset="1" stop-color="#6D7EF7"/>
</linearGradient>
<linearGradient id="paint1_linear_4715_10788" x1="217.214" y1="76.0208" x2="70.7164" y2="152.72" gradientUnits="userSpaceOnUse">
<stop stop-color="#AF4DEC"/>
<stop offset="1" stop-color="#6D7EF7"/>
</linearGradient>
<linearGradient id="paint2_linear_4715_10788" x1="177.544" y1="80.255" x2="173.003" y2="82.6325" gradientUnits="userSpaceOnUse">
<stop stop-color="#AF4DEC"/>
<stop offset="1" stop-color="#6D7EF7"/>
</linearGradient>
<linearGradient id="paint3_linear_4715_10788" x1="166.099" y1="81.2862" x2="161.558" y2="83.6638" gradientUnits="userSpaceOnUse">
<stop stop-color="#AF4DEC"/>
<stop offset="1" stop-color="#6D7EF7"/>
</linearGradient>
<linearGradient id="paint4_linear_4715_10788" x1="154.693" y1="82.005" x2="150.151" y2="84.3825" gradientUnits="userSpaceOnUse">
<stop stop-color="#AF4DEC"/>
<stop offset="1" stop-color="#6D7EF7"/>
</linearGradient>
<linearGradient id="paint5_linear_4715_10788" x1="143.81" y1="82.5206" x2="139.268" y2="84.8982" gradientUnits="userSpaceOnUse">
<stop stop-color="#AF4DEC"/>
<stop offset="1" stop-color="#6D7EF7"/>
</linearGradient>
<linearGradient id="paint6_linear_4715_10788" x1="158.214" y1="67.3942" x2="153.592" y2="69.8143" gradientUnits="userSpaceOnUse">
<stop stop-color="#AF4DEC"/>
<stop offset="1" stop-color="#6D7EF7"/>
</linearGradient>
<linearGradient id="paint7_linear_4715_10788" x1="147.541" y1="68.2114" x2="143.095" y2="70.9416" gradientUnits="userSpaceOnUse">
<stop stop-color="#AF4DEC"/>
<stop offset="1" stop-color="#6D7EF7"/>
</linearGradient>
<linearGradient id="paint8_linear_4715_10788" x1="169.323" y1="66.5427" x2="164.701" y2="68.9627" gradientUnits="userSpaceOnUse">
<stop stop-color="#AF4DEC"/>
<stop offset="1" stop-color="#6D7EF7"/>
</linearGradient>
<linearGradient id="paint9_linear_4715_10788" x1="136.834" y1="85.8727" x2="121.864" y2="86.022" gradientUnits="userSpaceOnUse">
<stop stop-color="#AF4DEC"/>
<stop offset="1" stop-color="#6D7EF7"/>
</linearGradient>
<linearGradient id="paint10_linear_4715_10788" x1="107.147" y1="87.5638" x2="92.0528" y2="87.7143" gradientUnits="userSpaceOnUse">
<stop stop-color="#AF4DEC"/>
<stop offset="1" stop-color="#6D7EF7"/>
</linearGradient>
<linearGradient id="paint11_linear_4715_10788" x1="110.964" y1="75.2208" x2="96.3496" y2="75.3665" gradientUnits="userSpaceOnUse">
<stop stop-color="#AF4DEC"/>
<stop offset="1" stop-color="#6D7EF7"/>
</linearGradient>
<linearGradient id="paint12_linear_4715_10788" x1="97.0567" y1="76.3821" x2="82.7689" y2="76.5245" gradientUnits="userSpaceOnUse">
<stop stop-color="#AF4DEC"/>
<stop offset="1" stop-color="#6D7EF7"/>
</linearGradient>
<linearGradient id="paint13_linear_4715_10788" x1="92.9801" y1="88.4371" x2="78.2364" y2="88.5841" gradientUnits="userSpaceOnUse">
<stop stop-color="#AF4DEC"/>
<stop offset="1" stop-color="#6D7EF7"/>
</linearGradient>
<linearGradient id="paint14_linear_4715_10788" x1="125.097" y1="74.3927" x2="110.482" y2="74.5384" gradientUnits="userSpaceOnUse">
<stop stop-color="#AF4DEC"/>
<stop offset="1" stop-color="#6D7EF7"/>
</linearGradient>
<linearGradient id="paint15_linear_4715_10788" x1="140.296" y1="73.0174" x2="125.289" y2="73.4054" gradientUnits="userSpaceOnUse">
<stop stop-color="#AF4DEC"/>
<stop offset="1" stop-color="#6D7EF7"/>
</linearGradient>
<linearGradient id="paint16_linear_4715_10788" x1="121.795" y1="86.5602" x2="106.825" y2="86.7095" gradientUnits="userSpaceOnUse">
<stop stop-color="#AF4DEC"/>
<stop offset="1" stop-color="#6D7EF7"/>
</linearGradient>
<linearGradient id="paint17_linear_4715_10788" x1="129.296" y1="80.6059" x2="129.403" y2="91.3383" gradientUnits="userSpaceOnUse">
<stop stop-color="white" stop-opacity="0.7"/>
<stop offset="1" stop-color="white" stop-opacity="0"/>
</linearGradient>
<linearGradient id="paint18_linear_4715_10788" x1="99.5467" y1="82.3174" x2="99.6533" y2="93.01" gradientUnits="userSpaceOnUse">
<stop stop-color="white" stop-opacity="0.7"/>
<stop offset="1" stop-color="white" stop-opacity="0"/>
</linearGradient>
<linearGradient id="paint19_linear_4715_10788" x1="103.607" y1="70.276" x2="103.707" y2="80.3578" gradientUnits="userSpaceOnUse">
<stop stop-color="white" stop-opacity="0.7"/>
<stop offset="1" stop-color="white" stop-opacity="0"/>
</linearGradient>
<linearGradient id="paint20_linear_4715_10788" x1="89.8639" y1="71.5478" x2="89.9622" y2="81.4042" gradientUnits="userSpaceOnUse">
<stop stop-color="white" stop-opacity="0.7"/>
<stop offset="1" stop-color="white" stop-opacity="0"/>
</linearGradient>
<linearGradient id="paint21_linear_4715_10788" x1="85.5578" y1="83.4485" x2="85.6592" y2="93.6195" gradientUnits="userSpaceOnUse">
<stop stop-color="white" stop-opacity="0.7"/>
<stop offset="1" stop-color="white" stop-opacity="0"/>
</linearGradient>
<linearGradient id="paint22_linear_4715_10788" x1="117.74" y1="69.4478" x2="117.84" y2="79.5297" gradientUnits="userSpaceOnUse">
<stop stop-color="white" stop-opacity="0.7"/>
<stop offset="1" stop-color="white" stop-opacity="0"/>
</linearGradient>
<linearGradient id="paint23_linear_4715_10788" x1="132.664" y1="68.2325" x2="133.087" y2="78.4641" gradientUnits="userSpaceOnUse">
<stop stop-color="white" stop-opacity="0.7"/>
<stop offset="1" stop-color="white" stop-opacity="0"/>
</linearGradient>
<linearGradient id="paint24_linear_4715_10788" x1="114.257" y1="81.2934" x2="114.364" y2="92.0258" gradientUnits="userSpaceOnUse">
<stop stop-color="white" stop-opacity="0.7"/>
<stop offset="1" stop-color="white" stop-opacity="0"/>
</linearGradient>
</defs>
</svg>
