<svg width="174" height="140" viewBox="0 0 174 140" fill="none" xmlns="http://www.w3.org/2000/svg">
<mask id="mask0_4715_10374" style="mask-type:alpha" maskUnits="userSpaceOnUse" x="1" y="1" width="172" height="138">
<rect x="1" y="1" width="172" height="138" rx="14" fill="white"/>
</mask>
<g mask="url(#mask0_4715_10374)">
<path d="M96.4781 145.352C85.6678 140.703 86.9992 117.079 89.0162 105.849C99.4035 95.0938 106.147 104.361 108.22 110.339C108.811 123.947 107.288 150.001 96.4781 145.352Z" fill="#B9B9B9"/>
<path d="M147.099 72.9297C156.964 74.4094 174.622 80.1692 180.146 92.007C183.023 98.1725 185.473 111.353 184.092 115.102C183.172 117.599 175.945 119.046 168.351 119.815C169.446 126.124 170.155 131.976 170.528 136.558C170.528 150.145 166.253 177.075 164.116 188.841C153.659 192.195 122.272 189.088 107.886 187.115L103.694 117.321V113.956C98.1374 108.69 92.2187 109.024 88.766 107.051L88.5251 109.764C84.3312 106.064 87.7792 99.4055 94.1914 90.2806C100.604 81.1556 102.707 81.5614 121.944 78.1087C137.333 75.3466 145.126 73.5051 147.099 72.9297Z" fill="url(#paint0_linear_4715_10374)"/>
<path d="M127.367 79.5191V71.0555L147.097 60.3516C144.685 65.9276 146.092 71.3044 147.097 73.2958C142.055 80.8633 131.843 80.5977 127.367 79.5191Z" fill="#DEDEDE"/>
<path d="M148.093 57.1482C144.93 69.3441 125.898 72.8212 124.418 71.6988C117.266 66.2732 115.089 60.2192 118.252 48.0233C121.415 35.8274 130.158 29.324 140.448 31.993C150.739 34.6619 151.257 44.9524 148.093 57.1482Z" fill="#DEDEDE"/>
<path d="M135.606 38.6557C137.692 35.1215 138.977 36.8471 140.785 38.6557C147.691 35.6962 142.407 49.7536 144.133 51.48C145.515 52.861 147.34 51.48 149.806 50.2469V59.8651C158.437 55.9191 158.931 46.0543 159.424 38.6557C159.917 31.257 144.38 13.9936 128.35 22.1321C112.319 30.2706 110.575 45.0287 118.4 47.6358C119.652 42.6301 123.788 39.5633 125.699 38.6557C126.488 39.8395 121.422 44.0814 124.135 44.0814C127.883 44.9921 133.691 41.9001 135.606 38.6557Z" fill="url(#paint1_linear_4715_10374)"/>
<path d="M152.283 50.242C150.31 47.0853 148.501 51.5573 147.844 54.1879L146.117 61.8332C154.996 57.6406 154.749 54.1879 152.283 50.242Z" fill="#DEDEDE"/>
<path fill-rule="evenodd" clip-rule="evenodd" d="M116.997 158.876C115.475 156.935 109.174 155.295 107.942 155.321C106.709 155.348 106.237 156.345 107.538 157.205C108.881 157.718 110.791 159.355 110.818 160.588C108.97 161.828 105.721 163.087 103.6 162.174C100.761 160.952 95.9557 160.019 95.83 161.058C95.6207 162.79 96.2559 164.799 101.309 168.045C106.362 171.291 112.122 173.041 118.496 171.177C118.936 171.049 119.315 170.874 119.638 170.661C132.095 169.354 157.61 158.743 164.055 153.376C169.212 149.081 177.983 125.842 181.724 114.76L161.04 118.758C159.672 124.74 155.437 138.07 149.437 143.527C143.574 148.86 127.163 156.539 117.871 159.787C117.585 159.456 117.293 159.15 116.997 158.876Z" fill="#E8E8E8"/>
<path d="M87.2102 107.174C86.7469 106.324 87.9339 106.693 88.5854 106.983L88.3685 108.549C88.1755 108.445 87.6736 108.023 87.2102 107.174Z" fill="#AF4DEC"/>
<path d="M134.766 69.3203C132.229 70.9402 128.776 71.5702 127.367 71.6827V75.7325C129.34 75.4625 133.122 71.3452 134.766 69.3203Z" fill="#B9B9B9"/>
<circle cx="121.345" cy="71.9257" r="7.39862" transform="rotate(2.18761 121.345 71.9257)" fill="url(#paint2_linear_4715_10374)"/>
<path d="M125.738 77.3894C123.46 74.2958 117.62 74.8727 115.509 75.6378L111.536 101.993C113.582 103.921 117.634 103.695 119.405 103.341L125.738 77.3894Z" fill="#471B62"/>
<path d="M121.413 68.476C118.203 68.3534 114.309 69.9219 113.821 70.4072C113.333 70.8925 113.553 71.6662 114.051 71.6852C114.906 71.0211 117.387 69.5915 121.365 69.7434C125.353 69.8958 127.73 72.1532 128.52 73.1899C129.268 72.9717 129.257 72.2661 129.02 71.9397C128.042 70.5943 124.654 68.5998 121.413 68.476Z" fill="#D798FF"/>
<path d="M92.0216 139.798C90.3765 126.352 100.151 102.087 105.243 91.6357C116.045 79.6227 117.224 91.933 118.379 97.6299C112.736 100.162 110.395 130.409 109.88 139.114C109.364 147.818 94.078 156.605 92.0216 139.798Z" fill="#DEDEDE"/>
<path d="M112.979 82.4682C111.946 82.7213 110.924 85.253 110.542 86.4872C111.928 86.3408 114.733 85.629 114.87 83.953C115.041 81.8579 114.271 82.1519 112.979 82.4682Z" fill="#B9B9B9"/>
<path d="M122.05 81.1327C116.832 81.1476 109.074 86.3159 105.897 91.2829C106.619 95.9493 116.933 99.3093 119.504 97.3618C122.79 94.8723 120.015 94.5238 125.18 93.2638C126.313 92.9875 129.631 93.595 129.541 91.5111C129.452 89.4272 121.593 91.9916 122.475 91.0311C123.472 89.9445 129.485 90.2034 128.864 87.8813C128.242 85.5593 119.542 89.591 119.769 88.7984C119.951 88.1643 122.232 87.388 123.349 87.0792C125.407 86.382 128.732 84.8129 125.571 84.1133C121.619 83.2389 117.834 86.2717 117.801 85.4903C117.767 84.7088 121.369 83.5105 123.193 83.4324C125.016 83.3542 128.574 81.114 122.05 81.1327Z" fill="#DEDEDE"/>
</g>
<defs>
<linearGradient id="paint0_linear_4715_10374" x1="86.6875" y1="131.357" x2="184.488" y2="131.357" gradientUnits="userSpaceOnUse">
<stop stop-color="#AF4DEC"/>
<stop offset="1" stop-color="#6D7EF7"/>
</linearGradient>
<linearGradient id="paint1_linear_4715_10374" x1="113.883" y1="39.8407" x2="159.435" y2="39.8407" gradientUnits="userSpaceOnUse">
<stop stop-color="#AF4DEC"/>
<stop offset="1" stop-color="#6D7EF7"/>
</linearGradient>
<linearGradient id="paint2_linear_4715_10374" x1="113.947" y1="71.8916" x2="128.744" y2="71.8916" gradientUnits="userSpaceOnUse">
<stop stop-color="#AF4DEC"/>
<stop offset="1" stop-color="#6D7EF7"/>
</linearGradient>
</defs>
</svg>
