<svg width="83" height="98" viewBox="0 0 83 98" fill="none" xmlns="http://www.w3.org/2000/svg">
<g filter="url(#filter0_d_4265_11309)">
<rect x="4" width="75" height="90" rx="15" fill="black"/>
</g>
<g filter="url(#filter1_d_4265_11309)">
<rect x="4" width="75" height="90" rx="15" fill="url(#paint0_linear_4265_11309)" fill-opacity="0.3" shape-rendering="crispEdges"/>
<rect x="5" y="1" width="73" height="88" rx="14" stroke="#AF4DEC" stroke-width="2" shape-rendering="crispEdges"/>
</g>
<path d="M38.6285 49.432H37.6445V56.092H38.3285C39.4925 56.092 40.7285 56.032 42.1805 55.756L42.0845 54.904C40.8005 55.156 39.6605 55.228 38.6285 55.24V49.432ZM45.3005 48.124V52.504H43.7765V48.364H42.8525V58.336H43.7765V53.32H45.3005V58.876H46.2485V48.124H45.3005ZM38.4849 66.096H39.8529V70.176H40.8009V62.136H39.8529V65.292H38.4849V62.328H37.5489V69.78H38.4849V66.096ZM35.4489 67.368H33.1329V65.544H35.4489V67.368ZM36.3729 63H35.4489V64.764H33.1329V63H32.1969V68.16H36.3729V63ZM34.7649 71.844V69.18H33.7809V72.648H41.1129V71.844H34.7649ZM51.144 67.284H44.724V63.924H51.036V63.108H43.752V68.088H51.144V67.284ZM42.504 70.62V71.436H52.272V70.62H42.504Z" fill="white"/>
<path d="M26.1759 37.802C26.0278 38.1311 25.9732 38.4622 26.0122 38.7952C26.0511 39.1282 26.1836 39.4064 26.4097 39.6297C26.6357 39.853 26.9592 39.9647 27.38 39.9647C27.6139 39.9647 27.8379 39.9157 28.0523 39.8178C28.2666 39.7198 28.5219 39.5455 28.8181 39.2947L32.0214 36.6031C32.1383 36.5091 32.2241 36.4621 32.2786 36.4621C32.3332 36.4621 32.4189 36.5091 32.5358 36.6031L35.7392 39.2947C36.0432 39.5455 36.3023 39.7198 36.5167 39.8178C36.731 39.9157 36.9512 39.9647 37.1772 39.9647C37.5981 39.9647 37.9235 39.853 38.1534 39.6297C38.3833 39.4064 38.5159 39.1282 38.551 38.7952C38.586 38.4622 38.5295 38.1311 38.3814 37.802L33.2256 26.0837V20.63C33.2256 19.7367 33.2626 18.9335 33.3367 18.2205C33.4107 17.5074 33.4848 16.9198 33.5588 16.4574C33.6329 15.9951 33.6699 15.7013 33.6699 15.5759C33.6699 15.4035 33.6192 15.2645 33.5179 15.1587C33.4166 15.0529 33.2841 15 33.1204 15C32.9178 15 32.68 15.1489 32.4072 15.4466L29.8352 18.4203C29.7183 18.5535 29.6735 18.6926 29.7007 18.8376C29.728 18.9825 29.8157 19.0981 29.9638 19.1843C30.4782 19.4037 30.8387 19.5957 31.0452 19.7602C31.2518 19.9248 31.355 20.2147 31.355 20.63V26.0484L26.1759 37.802ZM27.38 38.2722L32.2085 27.2002H32.3488L37.1772 38.2722C37.2396 38.4211 37.2279 38.5249 37.1422 38.5836C37.0565 38.6424 36.959 38.6248 36.8499 38.5307L33.249 35.5101C32.8671 35.2045 32.5436 35.0517 32.2786 35.0517C32.0136 35.0517 31.6902 35.2045 31.3083 35.5101L27.7074 38.5307C27.5983 38.6248 27.5009 38.6424 27.4151 38.5836C27.3294 38.5249 27.3177 38.4211 27.38 38.2722ZM34.7221 35.8509C34.878 35.8509 35.0144 35.7941 35.1313 35.6805C35.2482 35.5669 35.3066 35.4356 35.3066 35.2867C35.3066 35.1379 35.2501 35.0047 35.1371 34.8871C35.0241 34.7696 34.8858 34.7108 34.7221 34.7108C34.5818 34.7108 34.4571 34.7696 34.348 34.8871C34.2389 35.0047 34.1843 35.1379 34.1843 35.2867C34.1843 35.4434 34.2369 35.5767 34.3421 35.6864C34.4474 35.7961 34.574 35.8509 34.7221 35.8509ZM34.1258 34.3817C34.2739 34.3817 34.4064 34.3269 34.5233 34.2171C34.6403 34.1075 34.6987 33.9743 34.6987 33.8176C34.6987 33.6608 34.6403 33.5257 34.5233 33.4121C34.4064 33.2985 34.2739 33.2416 34.1258 33.2416C33.97 33.2416 33.8355 33.3004 33.7225 33.418C33.6095 33.5355 33.553 33.6686 33.553 33.8176C33.553 33.9743 33.6095 34.1075 33.7225 34.2171C33.8355 34.3269 33.97 34.3817 34.1258 34.3817ZM33.5062 32.9007C33.6621 32.9007 33.7946 32.8478 33.9037 32.7421C34.0128 32.6363 34.0674 32.5051 34.0674 32.3484C34.0674 32.1917 34.0128 32.0545 33.9037 31.937C33.7946 31.8194 33.6621 31.7607 33.5062 31.7607C33.3581 31.7607 33.2276 31.8214 33.1146 31.9429C33.0015 32.0643 32.945 32.1995 32.945 32.3484C32.945 32.4972 33.0015 32.6265 33.1146 32.7362C33.2276 32.8459 33.3581 32.9007 33.5062 32.9007ZM36.9084 32.936L37.7384 34.7931C37.7929 34.1976 37.9332 33.7019 38.1593 33.3062C38.3853 32.9105 38.6016 32.5481 38.8082 32.219C39.0147 31.89 39.1179 31.5256 39.1179 31.126C39.1179 30.7263 39.0517 30.3698 38.9192 30.0564C38.7867 29.7429 38.6542 29.4452 38.5217 29.1631C38.3893 28.881 38.323 28.5833 38.323 28.2698C38.323 28.1444 38.3737 28.0817 38.475 28.0817C38.6074 28.0817 38.7322 28.1523 38.8491 28.2934C38.966 28.4344 39.0927 28.5989 39.2291 28.787C39.3654 28.9751 39.5291 29.1416 39.72 29.2865C39.911 29.4315 40.1507 29.504 40.439 29.504C40.7041 29.504 40.934 29.4256 41.1289 29.2689C41.3237 29.1122 41.464 28.885 41.5497 28.5872H41.6433C41.7368 28.8928 41.881 29.122 42.0759 29.2748C42.2707 29.4276 42.5006 29.504 42.7656 29.504C43.0462 29.504 43.2839 29.4315 43.4788 29.2865C43.6736 29.1416 43.8373 28.9751 43.9698 28.787C44.1023 28.5989 44.227 28.4344 44.3439 28.2934C44.4608 28.1523 44.5816 28.0817 44.7064 28.0817C44.8233 28.0817 44.8817 28.1444 44.8817 28.2698C44.8817 28.5833 44.8155 28.881 44.683 29.1631C44.5505 29.4452 44.416 29.7429 44.2797 30.0564C44.1432 30.3698 44.075 30.7263 44.075 31.126C44.075 31.4551 44.1471 31.7548 44.2913 32.0251C44.4355 32.2955 44.6031 32.5795 44.794 32.8773C44.985 33.175 45.1526 33.5159 45.2968 33.8998C45.441 34.2837 45.513 34.746 45.513 35.2867C45.513 36.3368 45.1662 37.1595 44.4725 37.755C43.7788 38.3505 42.8201 38.6483 41.5965 38.6483C41.1211 38.6483 40.6768 38.6013 40.2637 38.5073C39.8506 38.4133 39.4609 38.2761 39.0946 38.0958C39.1569 38.3701 39.1823 38.617 39.1706 38.8363C39.1589 39.0557 39.1024 39.2751 39.001 39.4946C39.4141 39.6591 39.8369 39.7845 40.2695 39.8707C40.7021 39.9569 41.1444 40 41.5965 40C42.6487 40 43.5684 39.8041 44.3556 39.4123C45.1428 39.0205 45.7546 38.472 46.1911 37.7668C46.6276 37.0615 46.8458 36.2349 46.8458 35.2867C46.8458 34.699 46.7737 34.1858 46.6295 33.747C46.4853 33.3082 46.3177 32.9262 46.1268 32.601C45.9359 32.2759 45.7664 31.9938 45.6183 31.7548C45.4702 31.5158 45.3961 31.3023 45.3961 31.1142C45.3961 30.8165 45.4624 30.5266 45.5949 30.2445C45.7273 29.9624 45.8599 29.6646 45.9924 29.3512C46.1249 29.0377 46.1911 28.6812 46.1911 28.2816C46.1911 27.8428 46.0626 27.4843 45.8054 27.2061C45.5481 26.928 45.2168 26.7889 44.8116 26.7889C44.4453 26.7889 44.1432 26.879 43.9055 27.0592C43.6678 27.2394 43.4788 27.4431 43.3385 27.6704C43.2372 27.835 43.1397 27.9682 43.0462 28.07C42.9527 28.1719 42.8708 28.2229 42.8006 28.2229C42.7227 28.2229 42.6643 28.1817 42.6254 28.0994C42.5864 28.0171 42.5572 27.9035 42.5377 27.7586C42.5182 27.6136 42.5123 27.451 42.5201 27.2707L42.5318 20.0893C42.5318 19.9169 42.5396 19.8092 42.5551 19.7661C42.5708 19.723 42.6214 19.6897 42.7072 19.6662C42.941 19.5957 43.0734 19.3959 43.1046 19.0668L43.3502 16.669C43.3658 16.4339 43.2801 16.2341 43.093 16.0696L42.0875 15.1881C41.9473 15.0627 41.7836 15 41.5965 15C41.4095 15 41.2419 15.0627 41.0938 15.1881L40.1 16.0696C39.913 16.2341 39.8273 16.4339 39.8428 16.669L40.0767 19.0668C40.1078 19.388 40.2442 19.5878 40.4858 19.6662C40.5638 19.6819 40.6125 19.7152 40.632 19.7661C40.6515 19.817 40.6612 19.9248 40.6612 20.0893L40.6845 27.2707C40.6845 27.4432 40.6768 27.6019 40.6612 27.7468C40.6456 27.8918 40.6164 28.0074 40.5735 28.0936C40.5307 28.1798 40.4742 28.2229 40.404 28.2229C40.3261 28.2229 40.2423 28.168 40.1526 28.0583C40.063 27.9485 39.9636 27.8193 39.8545 27.6704C39.6986 27.4589 39.5057 27.259 39.2758 27.0709C39.0458 26.8829 38.7516 26.7889 38.3932 26.7889C37.9878 26.7889 37.6546 26.926 37.3935 27.2002C37.1324 27.4745 37.0018 27.835 37.0018 28.2816C37.0018 28.6812 37.0681 29.0377 37.2007 29.3512C37.3332 29.6646 37.4656 29.9624 37.5981 30.2445C37.7306 30.5266 37.7969 30.8165 37.7969 31.1142C37.7969 31.3336 37.6994 31.5863 37.5045 31.8723C37.3097 32.1583 37.111 32.5129 36.9084 32.936ZM39.2817 35.0869C39.4064 35.1339 39.5272 35.128 39.6441 35.0693C39.761 35.0106 39.8429 34.9224 39.8896 34.8049L40.8599 32.125C40.8989 31.9997 40.8911 31.8763 40.8366 31.7548C40.782 31.6333 40.6963 31.553 40.5794 31.5138C40.4547 31.4668 40.3319 31.4727 40.2111 31.5315C40.0903 31.5902 40.0065 31.6784 39.9598 31.796L38.9893 34.4875C38.9504 34.605 38.9582 34.7245 39.0128 34.846C39.0673 34.9674 39.1569 35.0477 39.2817 35.0869ZM43.9113 35.0869C44.036 35.0477 44.1257 34.9674 44.1802 34.846C44.2348 34.7245 44.2387 34.605 44.192 34.4875L43.2216 31.796C43.1748 31.6784 43.093 31.5902 42.976 31.5315C42.8591 31.4727 42.7383 31.4668 42.6136 31.5138C42.4967 31.553 42.411 31.6333 42.3564 31.7548C42.3019 31.8763 42.2941 31.9997 42.3331 32.125L43.3034 34.8049C43.3502 34.9224 43.432 35.0106 43.5489 35.0693C43.6658 35.128 43.7866 35.1339 43.9113 35.0869ZM50.7624 39.9294C52.3601 39.9294 53.6325 39.5729 54.5796 38.8598C55.5265 38.1468 56 37.1869 56 35.9802C56 35.369 55.9201 34.8617 55.7604 34.4582C55.6005 34.0546 55.4174 33.7118 55.2109 33.4297C55.0043 33.1476 54.8211 32.8929 54.6614 32.6657C54.5016 32.4385 54.4217 32.1955 54.4217 31.937C54.4217 31.5452 54.4802 31.1554 54.5971 30.7675C54.714 30.3796 54.7724 29.9428 54.7724 29.4569C54.7724 28.6499 54.5035 27.9995 53.9657 27.5058C53.4279 27.0122 52.668 26.7066 51.686 26.5891V19.6544C51.686 19.4194 51.7074 19.2529 51.7502 19.1549C51.7931 19.057 51.8808 18.961 52.0133 18.8669C52.2394 18.7259 52.3446 18.5535 52.329 18.3498L52.1536 15.4466C52.1458 15.3134 52.101 15.2057 52.0192 15.1234C51.9373 15.0411 51.834 15 51.7093 15H49.792C49.6751 15 49.5757 15.0411 49.4939 15.1234C49.412 15.2057 49.3673 15.3134 49.3595 15.4466L49.1841 18.3498C49.1763 18.5535 49.2815 18.7259 49.4997 18.8669C49.64 18.9688 49.7296 19.0687 49.7686 19.1667C49.8076 19.2646 49.8271 19.4272 49.8271 19.6544V26.5891C48.845 26.7066 48.085 27.0122 47.5472 27.5058C47.0095 27.9995 46.7407 28.6499 46.7407 29.4569C46.7407 29.9428 46.7991 30.3796 46.9159 30.7675C47.0329 31.1554 47.0913 31.5452 47.0913 31.937C47.0913 32.0232 47.0757 32.1211 47.0445 32.2309C47.0134 32.3405 46.955 32.4815 46.8692 32.6539C46.9861 32.9046 47.0816 33.1495 47.1557 33.3886C47.2297 33.6276 47.294 33.8685 47.3485 34.1114C47.5979 33.798 47.8396 33.4591 48.0734 33.0947C48.3073 32.7304 48.4242 32.3366 48.4242 31.9135C48.4242 31.4982 48.3638 31.0809 48.2429 30.6617C48.1221 30.2425 48.0617 29.8409 48.0617 29.4569C48.0617 28.8458 48.3073 28.4207 48.7983 28.1817C49.2893 27.9427 49.944 27.8232 50.7624 27.8232C51.5574 27.8232 52.2043 27.9387 52.7031 28.1699C53.2019 28.4011 53.4513 28.8301 53.4513 29.4569C53.4513 29.8409 53.3909 30.2425 53.2701 30.6617C53.1493 31.0809 53.0889 31.4982 53.0889 31.9135C53.0889 32.2739 53.1688 32.601 53.3286 32.8949C53.4884 33.1887 53.6735 33.4826 53.8839 33.7764C54.0943 34.0702 54.2775 34.3915 54.4334 34.7402C54.5893 35.0889 54.6672 35.5022 54.6672 35.9802C54.6672 36.7951 54.3224 37.4357 53.6326 37.902C52.9427 38.3682 51.986 38.6012 50.7624 38.6012C48.9931 38.6012 47.785 38.135 47.1381 37.2026C47.0446 37.4612 46.9452 37.6884 46.84 37.8843C46.7348 38.0802 46.6159 38.2721 46.4834 38.4602C46.9511 38.9461 47.5512 39.3124 48.2838 39.5592C49.0165 39.806 49.8427 39.9294 50.7624 39.9294ZM50.7624 32.8655C51.1053 32.8655 51.4015 32.7421 51.6509 32.4952C51.9003 32.2484 52.025 31.9487 52.025 31.5962C52.025 31.2435 51.9003 30.9418 51.6509 30.6911C51.4015 30.4403 51.1053 30.315 50.7624 30.315C50.4117 30.315 50.1096 30.4403 49.8563 30.6911C49.603 30.9418 49.4763 31.2435 49.4763 31.5962C49.4763 31.9487 49.601 32.2484 49.8504 32.4952C50.0998 32.7421 50.4038 32.8655 50.7624 32.8655ZM49.2659 36.1918H52.2355C52.3758 36.1918 52.4946 36.1428 52.592 36.0449C52.6895 35.9469 52.7382 35.8274 52.7382 35.6864C52.7382 35.5375 52.6895 35.4121 52.592 35.3103C52.4946 35.2084 52.3758 35.1574 52.2355 35.1574H49.2659C49.1256 35.1574 49.0048 35.2103 48.9034 35.3161C48.8022 35.4219 48.7515 35.5453 48.7515 35.6864C48.7515 35.8274 48.8022 35.9469 48.9034 36.0449C49.0048 36.1428 49.1256 36.1918 49.2659 36.1918Z" fill="white" fill-opacity="0.85"/>
<defs>
<filter id="filter0_d_4265_11309" x="0" y="0" width="83" height="98" filterUnits="userSpaceOnUse" color-interpolation-filters="sRGB">
<feFlood flood-opacity="0" result="BackgroundImageFix"/>
<feColorMatrix in="SourceAlpha" type="matrix" values="0 0 0 0 0 0 0 0 0 0 0 0 0 0 0 0 0 0 127 0" result="hardAlpha"/>
<feOffset dy="4"/>
<feGaussianBlur stdDeviation="2"/>
<feComposite in2="hardAlpha" operator="out"/>
<feColorMatrix type="matrix" values="0 0 0 0 0 0 0 0 0 0 0 0 0 0 0 0 0 0 0.1 0"/>
<feBlend mode="normal" in2="BackgroundImageFix" result="effect1_dropShadow_4265_11309"/>
<feBlend mode="normal" in="SourceGraphic" in2="effect1_dropShadow_4265_11309" result="shape"/>
</filter>
<filter id="filter1_d_4265_11309" x="0" y="0" width="83" height="98" filterUnits="userSpaceOnUse" color-interpolation-filters="sRGB">
<feFlood flood-opacity="0" result="BackgroundImageFix"/>
<feColorMatrix in="SourceAlpha" type="matrix" values="0 0 0 0 0 0 0 0 0 0 0 0 0 0 0 0 0 0 127 0" result="hardAlpha"/>
<feOffset dy="4"/>
<feGaussianBlur stdDeviation="2"/>
<feComposite in2="hardAlpha" operator="out"/>
<feColorMatrix type="matrix" values="0 0 0 0 0 0 0 0 0 0 0 0 0 0 0 0 0 0 0.1 0"/>
<feBlend mode="normal" in2="BackgroundImageFix" result="effect1_dropShadow_4265_11309"/>
<feBlend mode="normal" in="SourceGraphic" in2="effect1_dropShadow_4265_11309" result="shape"/>
</filter>
<linearGradient id="paint0_linear_4265_11309" x1="16.5" y1="6.42857" x2="72.9003" y2="82.0611" gradientUnits="userSpaceOnUse">
<stop stop-color="#AF4DEC"/>
<stop offset="1" stop-color="#1E1E1E"/>
</linearGradient>
</defs>
</svg>
