<svg width="31" height="25" viewBox="0 0 31 25" fill="none" xmlns="http://www.w3.org/2000/svg">
<path d="M6.96568 23.4843C7.18507 23.4843 7.38618 23.4277 7.569 23.3144C7.75183 23.2012 7.97122 23.024 8.22717 22.7829L11.4193 19.8127C11.1121 19.5716 10.8489 19.2245 10.6295 18.7715C10.4101 18.3185 10.3004 17.6463 10.3004 16.7549V9.48826C10.3004 8.37035 10.518 7.41136 10.9531 6.61127C11.3882 5.81118 12.0098 5.19742 12.818 4.76998C13.6261 4.34253 14.5895 4.12881 15.7084 4.12881H23.3871L23.3762 3.72329C23.3176 2.97069 23.1202 2.31674 22.7837 1.76143C22.4474 1.20612 21.9775 0.775019 21.3742 0.468136C20.7709 0.161254 20.0524 0.0078125 19.2186 0.0078125H4.16843C2.91059 0.0078125 1.90139 0.36767 1.14083 1.08739C0.380278 1.80709 0 2.8209 0 4.12881V14.8916C0 16.1922 0.380278 17.2298 1.14083 18.0043C1.90139 18.7788 2.91059 19.1661 4.16843 19.1661H5.98938V22.3664C5.98938 22.7025 6.07531 22.9729 6.24717 23.1775C6.41902 23.3821 6.65853 23.4843 6.96568 23.4843Z" fill="white"/>
<path d="M24.6939 24.9993C25.0011 24.9993 25.2406 24.897 25.4124 24.6924C25.5843 24.4878 25.6702 24.2175 25.6702 23.8814V20.692H26.833C28.0835 20.692 29.0909 20.3029 29.8551 19.5248C30.6193 18.7466 31.0014 17.7072 31.0014 16.4066V9.74287C31.0014 8.43495 30.6193 7.42296 29.8551 6.7069C29.0909 5.99084 28.0835 5.63281 26.833 5.63281H15.9621C14.6531 5.63281 13.6329 5.99267 12.9016 6.71238C12.1703 7.43209 11.8047 8.4459 11.8047 9.75382V16.4066C11.8047 17.7072 12.1703 18.7466 12.9016 19.5248C13.6329 20.3029 14.6531 20.692 15.9621 20.692H19.4724L23.4324 24.3088C23.6956 24.5426 23.9169 24.7162 24.096 24.8294C24.2752 24.9427 24.4745 24.9993 24.6939 24.9993Z" fill="white"/>
</svg>
