<svg width="41" height="54" viewBox="0 0 41 54" fill="none" xmlns="http://www.w3.org/2000/svg">
<mask id="path-1-inside-1_4265_12795" fill="white">
<path fill-rule="evenodd" clip-rule="evenodd" d="M38.2034 30.3852C39.7165 27.4905 40.5739 24.1859 40.5739 20.6771C40.5739 9.25745 31.4911 0 20.287 0C9.08278 0 0 9.25745 0 20.6771C0 24.1858 0.857443 27.4904 2.37041 30.385C2.35349 30.6111 2.41366 30.8474 2.57019 31.0556L3.50771 32.3025C3.93597 32.9434 4.39864 33.5584 4.89303 34.1449L19.4876 53.5553C19.8877 54.0873 20.6861 54.0873 21.0862 53.5553L35.68 34.146C36.175 33.5588 36.6383 32.943 37.067 32.3014L38.0036 31.0556C38.1601 30.8475 38.2203 30.6112 38.2034 30.3852Z"/>
</mask>
<path fill-rule="evenodd" clip-rule="evenodd" d="M38.2034 30.3852C39.7165 27.4905 40.5739 24.1859 40.5739 20.6771C40.5739 9.25745 31.4911 0 20.287 0C9.08278 0 0 9.25745 0 20.6771C0 24.1858 0.857443 27.4904 2.37041 30.385C2.35349 30.6111 2.41366 30.8474 2.57019 31.0556L3.50771 32.3025C3.93597 32.9434 4.39864 33.5584 4.89303 34.1449L19.4876 53.5553C19.8877 54.0873 20.6861 54.0873 21.0862 53.5553L35.68 34.146C36.175 33.5588 36.6383 32.943 37.067 32.3014L38.0036 31.0556C38.1601 30.8475 38.2203 30.6112 38.2034 30.3852Z" fill="url(#paint0_linear_4265_12795)"/>
<path d="M38.2034 30.3852L37.3172 29.922L37.1849 30.175L37.2062 30.4597L38.2034 30.3852ZM2.37041 30.385L3.36762 30.4597L3.38894 30.1749L3.25665 29.9218L2.37041 30.385ZM2.57019 31.0556L3.36947 30.4547H3.36946L2.57019 31.0556ZM3.50771 32.3025L4.33916 31.7469L4.3237 31.7238L4.30698 31.7015L3.50771 32.3025ZM4.89303 34.1449L5.6923 33.544L5.67557 33.5217L5.65762 33.5004L4.89303 34.1449ZM19.4876 53.5553L18.6884 54.1563L19.4876 53.5553ZM21.0862 53.5553L21.8855 54.1563L21.0862 53.5553ZM35.68 34.146L34.9155 33.5014L34.8975 33.5227L34.8807 33.545L35.68 34.146ZM37.067 32.3014L36.2677 31.7004L36.251 31.7227L36.2355 31.7458L37.067 32.3014ZM38.0036 31.0556L37.2044 30.4547V30.4547L38.0036 31.0556ZM39.5739 20.6771C39.5739 24.0213 38.757 27.1674 37.3172 29.922L39.0897 30.8484C40.6759 27.8136 41.5739 24.3504 41.5739 20.6771H39.5739ZM20.287 1C30.921 1 39.5739 9.79169 39.5739 20.6771H41.5739C41.5739 8.72321 32.0613 -1 20.287 -1V1ZM1 20.6771C1 9.79169 9.65294 1 20.287 1V-1C8.51263 -1 -1 8.72321 -1 20.6771H1ZM3.25665 29.9218C1.81692 27.1673 1 24.0213 1 20.6771H-1C-1 24.3503 -0.102034 27.8135 1.48417 30.8482L3.25665 29.9218ZM3.36946 30.4547C3.36658 30.4508 3.36562 30.4488 3.36561 30.4488C3.36559 30.4488 3.36605 30.4497 3.36655 30.4515C3.36766 30.4554 3.36771 30.4585 3.36762 30.4597L1.3732 30.3104C1.33881 30.7698 1.46371 31.248 1.77092 31.6566L3.36946 30.4547ZM4.30698 31.7015L3.36947 30.4547L1.77092 31.6566L2.70844 32.9035L4.30698 31.7015ZM5.65762 33.5004C5.18713 32.9423 4.74677 32.3569 4.33916 31.7469L2.67626 32.8581C3.12516 33.5299 3.61016 34.1746 4.12844 34.7894L5.65762 33.5004ZM20.2869 52.9543L5.6923 33.544L4.09376 34.7459L18.6884 54.1563L20.2869 52.9543ZM20.2869 52.9543H20.2869L18.6884 54.1563C19.4885 55.2203 21.0854 55.2203 21.8855 54.1563L20.2869 52.9543ZM34.8807 33.545L20.2869 52.9543L21.8855 54.1563L36.4793 34.7469L34.8807 33.545ZM36.2355 31.7458C35.8274 32.3565 35.3866 32.9426 34.9155 33.5014L36.4446 34.7905C36.9635 34.175 37.4491 33.5295 37.8985 32.8569L36.2355 31.7458ZM37.2044 30.4547L36.2677 31.7004L37.8662 32.9023L38.8029 31.6566L37.2044 30.4547ZM37.2062 30.4597C37.2061 30.4585 37.2062 30.4554 37.2073 30.4515C37.2078 30.4497 37.2082 30.4488 37.2082 30.4488C37.2082 30.4488 37.2073 30.4508 37.2044 30.4547L38.8029 31.6566C39.1101 31.2481 39.235 30.77 39.2007 30.3107L37.2062 30.4597Z" fill="#7083E9" mask="url(#path-1-inside-1_4265_12795)"/>
<circle cx="20.2834" cy="20.2834" r="14.8771" fill="white"/>
<path d="M12.1719 27.2021C12.1719 25.7874 13.3187 24.6406 14.7334 24.6406H17.2948V27.2021C17.2948 28.6168 16.148 29.7636 14.7334 29.7636C13.3187 29.7636 12.1719 28.6168 12.1719 27.2021Z" fill="#7083E9"/>
<path d="M20.5703 24.5459C20.5703 23.1312 21.7171 21.9844 23.1318 21.9844H25.6933V24.5459C25.6933 25.9605 24.5465 27.1073 23.1318 27.1073C21.7171 27.1073 20.5703 25.9605 20.5703 24.5459Z" fill="#7083E9"/>
<rect x="16.4766" y="15.8359" width="0.819675" height="9.01642" fill="#7083E9"/>
<rect x="24.875" y="13.5781" width="0.819675" height="9.01642" fill="#7083E9"/>
<path d="M16.4766 14.3986L25.6979 10.8125V14.706L16.4766 18.292V14.3986Z" fill="#7083E9"/>
<defs>
<linearGradient id="paint0_linear_4265_12795" x1="20.287" y1="0" x2="20.287" y2="53.9543" gradientUnits="userSpaceOnUse">
<stop stop-color="#7083E9"/>
<stop offset="1" stop-color="#7083E9" stop-opacity="0"/>
</linearGradient>
</defs>
</svg>
